<mxfile host="ac.draw.io" modified="2021-02-24T03:29:23.509Z" agent="5.0 (Macintosh; Intel Mac OS X 10_15_3) AppleWebKit/537.36 (KHTML, like Gecko) Chrome/77.0.3865.90 Safari/537.36" etag="__HzN-k1SSDoecKGvEAB" version="14.4.2" type="embed"><diagram id="nTrbMlxC8jCw4Tek-pKE" name="Page-1"><mxGraphModel dx="2733" dy="2240" grid="1" gridSize="10" guides="1" tooltips="1" connect="1" arrows="1" fold="1" page="1" pageScale="1" pageWidth="827" pageHeight="1169" math="0" shadow="0"><root><mxCell id="0"/><mxCell id="1" parent="0"/><mxCell id="wjCRLZ0c9aTvCrKljIkT-20" value="" style="rounded=0;whiteSpace=wrap;html=1;fillColor=#f5f5f5;strokeColor=#666666;fontColor=#333333;" parent="1" vertex="1"><mxGeometry x="228" y="499" width="1702" height="251" as="geometry"/></mxCell><mxCell id="wjCRLZ0c9aTvCrKljIkT-17" value="" style="rounded=1;whiteSpace=wrap;html=1;fillColor=#e1d5e7;strokeColor=#9673a6;" parent="1" vertex="1"><mxGeometry x="247" y="510" width="1663" height="230" as="geometry"/></mxCell><mxCell id="5e1EL2xwupu4-Lr9WEpU-7" value="" style="rounded=0;whiteSpace=wrap;html=1;fillColor=#f5f5f5;strokeColor=#666666;fontColor=#333333;" parent="1" vertex="1"><mxGeometry x="864" y="178" width="586" height="285" as="geometry"/></mxCell><mxCell id="5e1EL2xwupu4-Lr9WEpU-63" value="" style="rounded=1;whiteSpace=wrap;html=1;strokeColor=#d6b656;fillColor=#fff2cc;fontSize=8;" parent="1" vertex="1"><mxGeometry x="930" y="210.5" width="500" height="77.5" as="geometry"/></mxCell><mxCell id="5e1EL2xwupu4-Lr9WEpU-15" value="" style="rounded=1;whiteSpace=wrap;html=1;fillColor=#d5e8d4;strokeColor=#82b366;" parent="1" vertex="1"><mxGeometry x="123" y="-82" width="190" height="90" as="geometry"/></mxCell><mxCell id="eHKS3EOxerdEjLhXiZhe-1" value="" style="rounded=0;whiteSpace=wrap;html=1;fillColor=#f5f5f5;strokeColor=#666666;fontColor=#333333;" parent="1" vertex="1"><mxGeometry x="228" y="179" width="385" height="283" as="geometry"/></mxCell><mxCell id="5e1EL2xwupu4-Lr9WEpU-1" value="" style="rounded=1;whiteSpace=wrap;html=1;fillColor=#fff2cc;strokeColor=#d6b656;" parent="1" vertex="1"><mxGeometry x="266" y="211" width="309" height="115" as="geometry"/></mxCell><mxCell id="eHKS3EOxerdEjLhXiZhe-3" value="Copy Activity" style="rounded=1;whiteSpace=wrap;html=1;" parent="1" vertex="1"><mxGeometry x="370" y="281" width="110" height="30" as="geometry"/></mxCell><mxCell id="eHKS3EOxerdEjLhXiZhe-8" value="" style="shape=image;verticalLabelPosition=bottom;labelBackgroundColor=#ffffff;verticalAlign=top;aspect=fixed;imageAspect=0;image=data:image/svg+xml,PHN2ZyB4bWxucz0iaHR0cDovL3d3dy53My5vcmcvMjAwMC9zdmciIHhtbG5zOnhsaW5rPSJodHRwOi8vd3d3LnczLm9yZy8xOTk5L3hsaW5rIiB2ZXJzaW9uPSIxLjEiIGlkPSJMYXllcl8xIiB4PSIwcHgiIHk9IjBweCIgd2lkdGg9IjUwcHgiIGhlaWdodD0iNTBweCIgdmlld0JveD0iMCAwIDUwIDUwIiBlbmFibGUtYmFja2dyb3VuZD0ibmV3IDAgMCA1MCA1MCIgeG1sOnNwYWNlPSJwcmVzZXJ2ZSI+JiN4YTs8Zz4mI3hhOwk8cGF0aCBmaWxsPSIjM0UzRTNFIiBkPSJNNi4xLDYuOHYzNi4zYzAsMy44LDguNCw2LjgsMTguOSw2LjhWNi44SDYuMXoiLz4mI3hhOwk8cGF0aCBmaWxsPSIjQTBBMUEyIiBkPSJNMjQuNyw1MEgyNWMxMC40LDAsMTguOS0zLjEsMTguOS02LjhWNi44SDI0LjdWNTB6Ii8+JiN4YTsJPHBhdGggZmlsbD0iI0ZGRkZGRiIgZD0iTTQzLjksNi44YzAsMy44LTguNCw2LjgtMTguOSw2LjhTNi4xLDEwLjYsNi4xLDYuOEM2LjEsMy4xLDE0LjYsMCwyNSwwUzQzLjksMy4xLDQzLjksNi44Ii8+JiN4YTsJPHBhdGggZmlsbD0iIzdGQkEwMCIgZD0iTTQwLDYuNGMwLDIuNS02LjcsNC41LTE1LDQuNXMtMTUtMi0xNS00LjVjMC0yLjUsNi43LTQuNSwxNS00LjVTNDAsMy45LDQwLDYuNCIvPiYjeGE7CTxwYXRoIGZpbGw9IiNCOEQ0MzIiIGQ9Ik0zNi45LDkuMmMyLTAuOCwzLjEtMS43LDMuMS0yLjhjMC0yLjUtNi43LTQuNS0xNS00LjVjLTguMywwLTE1LDItMTUsNC41YzAsMSwxLjIsMiwzLjEsMi44ICAgYzIuNy0xLjEsNy0xLjgsMTEuOS0xLjhDMjkuOCw3LjQsMzQuMSw4LjEsMzYuOSw5LjIiLz4mI3hhOzwvZz4mI3hhOzxnPiYjeGE7CTxwYXRoIGZpbGw9IiMzOTk5QzYiIGQ9Ik0yNC43LDUwVjMyYy0yLjgsMC01LjItMS41LTYuNi0zLjdjLTEuNCwyLjItMy43LDMuNy02LjUsMy43Yy0yLjIsMC00LjEtMC45LTUuNS0yLjR2MTMuNiAgIEM2LjEsNDYuOSwxNC40LDQ5LjksMjQuNyw1MHoiLz4mI3hhOwk8cGF0aCBmaWxsPSIjMzk5OUM2IiBkPSJNMjUsNTBMMjUsNTBMMjUsNTBDMjUsNTAsMjUsNTAsMjUsNTB6Ii8+JiN4YTsJPHBhdGggZmlsbD0iIzU5QjREOSIgZD0iTTI0LjcsNTBIMjVDMjQuOSw1MCwyNC44LDUwLDI0LjcsNTBMMjQuNyw1MHoiLz4mI3hhOwk8cGF0aCBmaWxsPSIjNTlCNEQ5IiBkPSJNMzguMSwzMmMtMi44LDAtNS4zLTEuNS02LjctMy43Yy0xLjMsMi4yLTMuNywzLjYtNi41LDMuN3YxOGgwYzEwLjQsMCwxOC45LTMuMSwxOC45LTYuOFYyOS41ICAgQzQyLjQsMzEsNDAuNCwzMiwzOC4xLDMyeiIvPiYjeGE7CTxwYXRoIGZpbGw9IiM1OUI0RDkiIGQ9Ik0yNC44LDMyQzI0LjgsMzIsMjQuOCwzMiwyNC44LDMybC0wLjEsMThjMC4xLDAsMC4xLDAsMC4yLDBoMFYzMkMyNC45LDMyLDI0LjksMzIsMjQuOCwzMnoiLz4mI3hhOzwvZz4mI3hhOzwvc3ZnPg==;" parent="1" vertex="1"><mxGeometry x="400" y="361" width="50" height="50" as="geometry"/></mxCell><mxCell id="eHKS3EOxerdEjLhXiZhe-13" value="" style="endArrow=classic;html=1;exitX=0.5;exitY=1;exitDx=0;exitDy=0;entryX=0.5;entryY=0;entryDx=0;entryDy=0;" parent="1" source="eHKS3EOxerdEjLhXiZhe-3" target="eHKS3EOxerdEjLhXiZhe-8" edge="1"><mxGeometry width="50" height="50" relative="1" as="geometry"><mxPoint x="550" y="341" as="sourcePoint"/><mxPoint x="600" y="291" as="targetPoint"/></mxGeometry></mxCell><mxCell id="eHKS3EOxerdEjLhXiZhe-21" value="Data Lake Raw" style="text;html=1;strokeColor=none;fillColor=none;align=center;verticalAlign=middle;whiteSpace=wrap;rounded=0;" parent="1" vertex="1"><mxGeometry x="392.5" y="421" width="65" height="20" as="geometry"/></mxCell><mxCell id="eHKS3EOxerdEjLhXiZhe-25" value="" style="endArrow=classic;html=1;entryX=0;entryY=0.5;entryDx=0;entryDy=0;exitX=1;exitY=0.5;exitDx=0;exitDy=0;" parent="1" source="reUgYVe65YWgNyv8JKeq-5" target="eHKS3EOxerdEjLhXiZhe-3" edge="1"><mxGeometry width="50" height="50" relative="1" as="geometry"><mxPoint x="178" y="298" as="sourcePoint"/><mxPoint x="267" y="298" as="targetPoint"/></mxGeometry></mxCell><mxCell id="5e1EL2xwupu4-Lr9WEpU-2" value="" style="shape=image;verticalLabelPosition=bottom;labelBackgroundColor=#ffffff;verticalAlign=top;aspect=fixed;imageAspect=0;image=data:image/svg+xml,PHN2ZyB4bWxucz0iaHR0cDovL3d3dy53My5vcmcvMjAwMC9zdmciIHhtbG5zOnhsaW5rPSJodHRwOi8vd3d3LnczLm9yZy8xOTk5L3hsaW5rIiB2ZXJzaW9uPSIxLjEiIGlkPSJMYXllcl8xIiB4PSIwcHgiIHk9IjBweCIgd2lkdGg9IjUwcHgiIGhlaWdodD0iNTBweCIgdmlld0JveD0iMCAwIDUwIDUwIiBlbmFibGUtYmFja2dyb3VuZD0ibmV3IDAgMCA1MCA1MCIgeG1sOnNwYWNlPSJwcmVzZXJ2ZSI+JiN4YTs8cGF0aCBmaWxsPSIjNTlCNEQ5IiBkPSJNNDkuOSwyOS41TDQ5LjksMjkuNVYxNy40TDM2LjIsMjkuM2gtMC4zVjE3LjRMMjIuMiwyOS4zbDAsMFY0LjRjMC0yLjEtNC43LTQuMi0xMC45LTQuMiAgQzUuMSwwLjIsMCwyLjIsMCw0LjRWNTBoNTBMNDkuOSwyOS41eiBNMTEuMyw2LjRjLTQuNSwwLTguMS0xLjEtOC4xLTIuM3MzLjYtMi4zLDguMS0yLjNzOC4xLDEsOC4xLDIuM0MxOS4zLDUuMywxNS43LDYuNCwxMS4zLDYuNCAgeiBNMzQuOSw0MS45aC01LjV2LTUuNWg1LjVWNDEuOXogTTI1LjIsNDEuOWgtNS41di01LjVoNS41VjQxLjl6IE0zOS4yLDQxLjl2LTUuNWg1LjV2NS41SDM5LjJ6Ii8+JiN4YTs8cmVjdCB4PSIwIiB5PSI0LjEiIGZpbGw9IiMzOTk5QzYiIHdpZHRoPSIxMS4xIiBoZWlnaHQ9IjQ1LjkiLz4mI3hhOzxwYXRoIGZpbGw9IiNGRkZGRkYiIGQ9Ik0yMi4xLDQuMWMwLDIuMi01LDQtMTEuMSw0UzAsNi4zLDAsNC4xYzAtMi4yLDUtNCwxMS4xLTRTMjIuMSwxLjgsMjIuMSw0LjEiLz4mI3hhOzxwYXRoIGZpbGw9IiM3RkJBMDAiIGQ9Ik0xOS45LDMuOGMwLDEuNS0zLjksMi42LTguOCwyLjZTMi4zLDUuMywyLjMsMy44YzAtMS41LDMuOS0yLjYsOC44LTIuNlMxOS45LDIuNCwxOS45LDMuOCIvPiYjeGE7PHBhdGggZmlsbD0iI0I4RDQzMiIgZD0iTTE4LDUuNGMxLjItMC40LDEuOC0xLDEuOC0xLjZjMC0xLjUtMy45LTIuNi04LjgtMi42Yy00LjksMC04LjgsMS4yLTguOCwyLjZDMi4zLDQuNCwzLDUsNC4xLDUuNCAgYzEuNi0wLjYsNC4xLTEsNy0xQzEzLjksNC40LDE2LjQsNC44LDE4LDUuNCIvPiYjeGE7PC9zdmc+;" parent="1" vertex="1"><mxGeometry x="296" y="223" width="40" height="40" as="geometry"/></mxCell><mxCell id="5e1EL2xwupu4-Lr9WEpU-3" value="Pre-build Hyper pipeline with placeholder for accepting runtime config&amp;nbsp;&amp;nbsp;" style="text;html=1;strokeColor=none;fillColor=none;align=left;verticalAlign=middle;whiteSpace=wrap;rounded=0;" parent="1" vertex="1"><mxGeometry x="346" y="233" width="230" height="20" as="geometry"/></mxCell><mxCell id="5e1EL2xwupu4-Lr9WEpU-8" value="" style="shape=image;verticalLabelPosition=bottom;labelBackgroundColor=#ffffff;verticalAlign=top;aspect=fixed;imageAspect=0;image=data:image/svg+xml,PHN2ZyB4bWxucz0iaHR0cDovL3d3dy53My5vcmcvMjAwMC9zdmciIHhtbG5zOnhsaW5rPSJodHRwOi8vd3d3LnczLm9yZy8xOTk5L3hsaW5rIiB4bWxuczpzdmc9Imh0dHA6Ly93d3cudzMub3JnLzIwMDAvc3ZnIiBjbGFzcz0iZnhzLXBvcnRhbC1zdmciIGlkPSJGeFN5bWJvbDAtMGZiIiByb2xlPSJwcmVzZW50YXRpb24iIHZpZXdCb3g9IjAgMCAyMy45ODEgMjIiIGZvY3VzYWJsZT0iZmFsc2UiPiYjeGE7PGc+JiN4YTs8dGl0bGUvPiYjeGE7PHRpdGxlPkNvc21vc19EQl8yPC90aXRsZT4mI3hhOzxwYXRoIGNsYXNzPSJtc3BvcnRhbGZ4LXN2Zy1jMTUiIGZpbGw9IiM1OWI0ZDkiIGQ9Ik0gMTkuOCA5LjggQSA3Ljk4IDcuOTggMCAxIDEgMTAuMyA0IGEgNy45NSA3Ljk1IDAgMCAxIDkuNSA1LjggWiIvPiYjeGE7PHBhdGggY2xhc3M9Im1zcG9ydGFsZngtc3ZnLWMwMSIgb3BhY2l0eT0iMC41IiBmaWxsPSIjZmZmZmZmIiBkPSJNIDExIDE0LjkgYSAyLjExMiAyLjExMiAwIDAgMCAtMi4xIC0yLjEgaCAtMC40IEEgMi4wMTUgMi4wMTUgMCAwIDAgNyAxMC4zIEggNC40IGEgNy44IDcuOCAwIDAgMCAxLjkgNi44IGggMi42IGEgMi4yIDIuMiAwIDAgMCAyLjEgLTIuMiBaIG0gMi42IC04LjcgdiAwLjQgaCAtMC45IGEgMi4yIDIuMiAwIDAgMCAwIDQuNCBIIDIwIGEgNy42MjQgNy42MjQgMCAwIDAgLTQuMSAtNi4yIEggMTUgYSAxLjM2NyAxLjM2NyAwIDAgMCAtMS40IDEuNCBaIG0gNi40IDYuMyBoIC00LjMgYSAxLjc5MyAxLjc5MyAwIDAgMCAtMS44IDEuOCBhIDIuOTIgMi45MiAwIDAgMCAwLjIgMC45IGEgMS44MTIgMS44MTIgMCAwIDAgLTEuMiAyLjIgYSAxLjYzMSAxLjYzMSAwIDAgMCAxLjcgMS4yIGggMS4yIGEgNy45NDcgNy45NDcgMCAwIDAgNC4yIC02LjEgWiIvPiYjeGE7PHBhdGggY2xhc3M9Im1zcG9ydGFsZngtc3ZnLWMxMyIgZmlsbD0iI2I4ZDQzMiIgZD0iTSAzLjIgNi40IGEgMC4yMTUgMC4yMTUgMCAwIDEgLTAuMiAtMC4yIEEgMi44IDIuOCAwIDAgMCAwLjIgMy40IGMgLTAuMSAwLjEgLTAuMiAtMC4xIC0wLjIgLTAuMiBBIDAuMjE1IDAuMjE1IDAgMCAxIDAuMiAzIEEgMi44IDIuOCAwIDAgMCAzIDAuMiBjIDAgLTAuMiAwLjEgLTAuMiAwLjIgLTAuMiBzIDAuMyAwIDAuMyAwLjIgQSAyLjggMi44IDAgMCAwIDYuMyAzIGEgMC4yIDAuMiAwIDAgMSAwIDAuNCBhIDIuOCAyLjggMCAwIDAgLTIuOCAyLjggYyAwIDAuMSAtMC4xIDAuMiAtMC4zIDAuMiBaIi8+JiN4YTs8cGF0aCBjbGFzcz0ibXNwb3J0YWxmeC1zdmctYzE1IiBmaWxsPSIjNTliNGQ5IiBkPSJNIDIwLjMgMjIgYyAtMC4xIDAgLTAuMSAwIC0wLjEgLTAuMSBhIDEuNjY2IDEuNjY2IDAgMCAwIC0xLjcgLTEuNiBjIC0wLjEgMCAtMC4xIDAgLTAuMSAtMC4xIHMgMCAtMC4xIDAuMSAtMC4xIGEgMS43MzUgMS43MzUgMCAwIDAgMS43IC0xLjYgYyAwIC0wLjEgMCAtMC4xIDAuMSAtMC4xIHMgMC4xIDAgMC4xIDAuMSBhIDEuNjY2IDEuNjY2IDAgMCAwIDEuNyAxLjYgYyAwLjEgMCAwLjEgMCAwLjEgMC4xIHMgMCAwLjEgLTAuMSAwLjEgYSAxLjczNSAxLjczNSAwIDAgMCAtMS43IDEuNiBjIDAuMSAwLjEgMCAwLjEgLTAuMSAwLjEgWiIvPiYjeGE7PHBhdGggZD0iTSAyMy43IDQuNiBjIC0wLjggLTEuMiAtMi42IC0xLjUgLTUuNSAtMC44IGEgMTkuNzUyIDE5Ljc1MiAwIDAgMCAtMi42IDAuOCBhIDcuODM3IDcuODM3IDAgMCAxIDEuNSAxIGMgMC41IC0wLjEgMSAtMC4zIDEuNCAtMC40IGEgOS4wNzkgOS4wNzkgMCAwIDEgMi4zIC0wLjMgYyAwLjkgMCAxLjQgMC4yIDEuNiAwLjUgYyAwLjMgMC41IDAgMS43IC0xLjYgMy42IGEgOS40MjggOS40MjggMCAwIDEgLTEgMSBhIDM0LjA3OCAzNC4wNzggMCAwIDEgLTYgNC42IEEgMjcuOSAyNy45IDAgMCAxIDcgMTcuNyBjIC0yLjkgMC45IC00LjkgMC45IC01LjMgMC4yIHMgMC40IC0yLjUgMi42IC00LjYgYSAxMS4wMTkgMTEuMDE5IDAgMCAxIC0wLjIgLTEuOCBDIDAuNyAxNC42IC0wLjQgMTcuMyAwLjQgMTguNyBhIDMuNTEgMy41MSAwIDAgMCAzIDEuMiBhIDE1LjA0NyAxNS4wNDcgMCAwIDAgNS4xIC0xLjEgYSAzMy42MjUgMzMuNjI1IDAgMCAwIDYgLTMgYSA0MS44NjkgNDEuODY5IDAgMCAwIDUuNCAtNCBhIDE3LjA0NCAxNy4wNDQgMCAwIDAgMS45IC0xLjkgYyAyIC0yLjMgMi42IC00LjEgMS45IC01LjMgWiIvPiYjeGE7PC9nPiYjeGE7PC9zdmc+;" parent="1" vertex="1"><mxGeometry x="-1.5500000000000114" y="-82" width="54.55" height="50" as="geometry"/></mxCell><mxCell id="5e1EL2xwupu4-Lr9WEpU-9" value="Azure Cosmos DB&amp;nbsp;" style="text;html=1;strokeColor=none;fillColor=none;align=center;verticalAlign=middle;whiteSpace=wrap;rounded=0;" parent="1" vertex="1"><mxGeometry x="-7" y="-22" width="80" height="20" as="geometry"/></mxCell><mxCell id="5e1EL2xwupu4-Lr9WEpU-11" value="" style="shape=image;verticalLabelPosition=bottom;labelBackgroundColor=#ffffff;verticalAlign=top;aspect=fixed;imageAspect=0;image=data:image/svg+xml,PHN2ZyB4bWxucz0iaHR0cDovL3d3dy53My5vcmcvMjAwMC9zdmciIHhtbG5zOnhsaW5rPSJodHRwOi8vd3d3LnczLm9yZy8xOTk5L3hsaW5rIiB2ZXJzaW9uPSIxLjEiIGlkPSJMYXllcl8xIiB4PSIwcHgiIHk9IjBweCIgdmlld0JveD0iMCAwIDE2IDE2IiBzdHlsZT0iZW5hYmxlLWJhY2tncm91bmQ6bmV3IDAgMCAxNiAxNjsiIHhtbDpzcGFjZT0icHJlc2VydmUiPiYjeGE7PHN0eWxlIHR5cGU9InRleHQvY3NzIj4mI3hhOwkuc3Qwe2ZpbGw6IzAwNzhENzt9JiN4YTsJLnN0MXtmaWxsOiNGRkZGRkY7fSYjeGE7PC9zdHlsZT4mI3hhOzxnPiYjeGE7CTxwYXRoIGNsYXNzPSJzdDAiIGQ9Ik0zLjgsMi4zQzMuNiwyLjEsMy40LDEuOSwzLjIsMS43Yy0wLjUtMC4zLTEtMC41LTEtMC41TDEuNSwxQzEuNCwxLjIsMS4zLDEuMywxLjMsMS42YzAsMC45LDAuMywxLjEsMC4zLDEuMSAgIEg0QzMuOSwyLjYsMy45LDIuNSwzLjgsMi4zeiIvPiYjeGE7CTxwYXRoIGNsYXNzPSJzdDAiIGQ9Ik00LjIsMTQuN2MwLjItMC4yLDAuMy0wLjUsMC4zLTAuOXYtMC41SDVoNy4zYzAtMC4yLDAtMC40LDAtMC41YzAtMi42LDIuMy02LjQsMi4zLTkuNGMwLTIuNC0yLjMtMi43LTIuMy0yLjcgICBINC4xSDIuM2MwLDAsMS44LDAuNCwyLjIsMmMwLjEsMC4yLDAuMSwwLjQsMC4xLDAuN2MwLDMtMi4zLDYuOC0yLjMsOS40YzAsMC4zLDAsMC43LDAuMSwxYzAuMSwwLjMsMC4yLDAuNSwwLjQsMC43ICAgYzAuMSwwLjEsMC4yLDAuMiwwLjQsMC4zQzMuMywxNC45LDMuNCwxNSwzLjYsMTVDMy44LDE1LDQsMTQuOSw0LjIsMTQuN3oiLz4mI3hhOwk8cGF0aCBjbGFzcz0ic3QwIiBkPSJNMy43LDE1LjUiLz4mI3hhOwk8cGF0aCBjbGFzcz0ic3QwIiBkPSJNNSwxMy45YzAsMC41LTAuMiwxLTAuNCwxLjJjLTAuMywwLjMtMC45LDAuNC0wLjksMC40bDkuOCwwaDAuM2MwLDAsMCwwLDAsMGMwLjMsMCwwLjYtMC4yLDAuOC0wLjUgICBjMC4yLTAuMywwLjMtMC43LDAuMy0xLjJoLTIuNUw1LDEzLjlMNSwxMy45eiIvPiYjeGE7PC9nPiYjeGE7PHBhdGggY2xhc3M9InN0MSIgZD0iTTExLjEsNC40TDguOCw2LjVoMmwtMy45LDMuNmwxLjYtM0g2LjdsMi0zaDIuNFY0LjR6Ii8+JiN4YTs8L3N2Zz4=;" parent="1" vertex="1"><mxGeometry x="240.5" y="-72" width="40" height="40" as="geometry"/></mxCell><mxCell id="5e1EL2xwupu4-Lr9WEpU-12" value="" style="endArrow=classic;html=1;entryX=0;entryY=0.5;entryDx=0;entryDy=0;" parent="1" target="5e1EL2xwupu4-Lr9WEpU-15" edge="1"><mxGeometry width="50" height="50" relative="1" as="geometry"><mxPoint x="63" y="-37" as="sourcePoint"/><mxPoint x="123" y="-152" as="targetPoint"/></mxGeometry></mxCell><mxCell id="5e1EL2xwupu4-Lr9WEpU-13" value="ADF Customized Trigger&amp;nbsp;" style="text;html=1;strokeColor=none;fillColor=none;align=center;verticalAlign=middle;whiteSpace=wrap;rounded=0;" parent="1" vertex="1"><mxGeometry x="213" y="-22" width="95" height="20" as="geometry"/></mxCell><mxCell id="5e1EL2xwupu4-Lr9WEpU-14" value="" style="verticalLabelPosition=bottom;html=1;verticalAlign=top;align=center;strokeColor=none;shape=mxgraph.azure.code_file;pointerEvents=1;fillColor=#666666;" parent="1" vertex="1"><mxGeometry x="153" y="-67" width="30" height="30" as="geometry"/></mxCell><mxCell id="5e1EL2xwupu4-Lr9WEpU-17" value="" style="shape=image;html=1;verticalAlign=top;verticalLabelPosition=bottom;labelBackgroundColor=#ffffff;imageAspect=0;aspect=fixed;image=https://cdn4.iconfinder.com/data/icons/ionicons/512/icon-ios7-plus-empty-128.png;fillColor=#FFFFFF;fontSize=8;" parent="1" vertex="1"><mxGeometry x="203" y="-65" width="28" height="28" as="geometry"/></mxCell><mxCell id="5e1EL2xwupu4-Lr9WEpU-18" value="&lt;font style=&quot;font-size: 12px&quot;&gt;run time parameters&amp;nbsp;&lt;/font&gt;" style="text;html=1;strokeColor=none;fillColor=none;align=left;verticalAlign=middle;whiteSpace=wrap;rounded=0;fontSize=8;" parent="1" vertex="1"><mxGeometry x="140.5" y="-22" width="100" height="20" as="geometry"/></mxCell><mxCell id="5e1EL2xwupu4-Lr9WEpU-25" value="&lt;font size=&quot;1&quot;&gt;&lt;b style=&quot;font-size: 12px&quot;&gt;1&lt;/b&gt;&lt;/font&gt;" style="ellipse;whiteSpace=wrap;html=1;aspect=fixed;fillColor=#d5e8d4;fontSize=8;strokeColor=#82b366;" parent="1" vertex="1"><mxGeometry x="83" y="-67" width="20" height="20" as="geometry"/></mxCell><mxCell id="5e1EL2xwupu4-Lr9WEpU-47" value="&lt;font color=&quot;#ff8000&quot;&gt;&lt;span style=&quot;font-size: 12px&quot;&gt;&lt;b&gt;1b&lt;/b&gt;&lt;/span&gt;&lt;/font&gt;" style="ellipse;whiteSpace=wrap;html=1;aspect=fixed;fillColor=#ffe6cc;fontSize=8;strokeColor=#d79b00;" parent="1" vertex="1"><mxGeometry x="200" y="272" width="20" height="20" as="geometry"/></mxCell><mxCell id="5e1EL2xwupu4-Lr9WEpU-80" value="Snowflake&#10; (Structured Layer)" style="shape=image;verticalLabelPosition=bottom;labelBackgroundColor=none;verticalAlign=top;aspect=fixed;imageAspect=0;image=https://globalcorporateventuring.com/content/uploads/2018/08/Snowflake_Computing_blue_icon.png;labelPosition=center;align=center;" parent="1" vertex="1"><mxGeometry x="1040" y="348.73" width="39" height="39.27" as="geometry"/></mxCell><mxCell id="5e1EL2xwupu4-Lr9WEpU-85" value="&lt;font style=&quot;font-size: 15px&quot; color=&quot;#ffb570&quot;&gt;&lt;b&gt;Acquisition Pipeline&amp;nbsp;&lt;/b&gt;&lt;/font&gt;" style="text;html=1;strokeColor=none;fillColor=none;align=center;verticalAlign=middle;whiteSpace=wrap;rounded=0;fontSize=8;" parent="1" vertex="1"><mxGeometry x="330.5" y="184" width="175" height="20" as="geometry"/></mxCell><mxCell id="5e1EL2xwupu4-Lr9WEpU-88" value="&lt;span style=&quot;font-size: 15px&quot;&gt;&lt;b&gt;&lt;font color=&quot;#ffb570&quot;&gt;Structured Pipeline&amp;nbsp;&lt;/font&gt;&lt;/b&gt;&lt;/span&gt;" style="text;html=1;strokeColor=none;fillColor=none;align=center;verticalAlign=middle;whiteSpace=wrap;rounded=0;fontSize=8;" parent="1" vertex="1"><mxGeometry x="1030" y="184" width="162" height="20" as="geometry"/></mxCell><mxCell id="5e1EL2xwupu4-Lr9WEpU-92" value="&lt;font style=&quot;font-size: 12px&quot;&gt;ADF Pre-build&amp;nbsp;&lt;/font&gt;" style="rounded=1;whiteSpace=wrap;html=1;strokeColor=#d6b656;fillColor=#fff2cc;fontSize=8;" parent="1" vertex="1"><mxGeometry x="1389" y="20" width="120" height="60" as="geometry"/></mxCell><mxCell id="5e1EL2xwupu4-Lr9WEpU-93" value="&lt;font style=&quot;font-size: 12px&quot;&gt;ADF Run-time&amp;nbsp;&lt;/font&gt;" style="rounded=1;whiteSpace=wrap;html=1;strokeColor=#82b366;fillColor=#d5e8d4;fontSize=8;" parent="1" vertex="1"><mxGeometry x="1537" y="20" width="120" height="60" as="geometry"/></mxCell><mxCell id="-d5AeIZ2xOsEHuWnEWz_-7" style="edgeStyle=orthogonalEdgeStyle;rounded=0;orthogonalLoop=1;jettySize=auto;html=1;entryX=1;entryY=0.5;entryDx=0;entryDy=0;startArrow=classic;startFill=1;endArrow=classic;endFill=1;" parent="1" source="wjCRLZ0c9aTvCrKljIkT-4" target="-d5AeIZ2xOsEHuWnEWz_-3" edge="1"><mxGeometry relative="1" as="geometry"/></mxCell><mxCell id="wjCRLZ0c9aTvCrKljIkT-4" value="" style="shape=image;verticalLabelPosition=bottom;labelBackgroundColor=#ffffff;verticalAlign=top;aspect=fixed;imageAspect=0;image=data:image/svg+xml,PHN2ZyB4bWxucz0iaHR0cDovL3d3dy53My5vcmcvMjAwMC9zdmciIHhtbG5zOnhsaW5rPSJodHRwOi8vd3d3LnczLm9yZy8xOTk5L3hsaW5rIiB2ZXJzaW9uPSIxLjEiIGlkPSJMYXllcl8xIiB4PSIwcHgiIHk9IjBweCIgdmlld0JveD0iMCAwIDY0IDY0IiBlbmFibGUtYmFja2dyb3VuZD0ibmV3IDAgMCA2NCA2NCIgeG1sOnNwYWNlPSJwcmVzZXJ2ZSI+JiN4YTs8Zz4mI3hhOwk8cGF0aCBmaWxsPSIjMzk5OUM2IiBkPSJNNjMuNiwzMi40YzAuNi0wLjYsMC41LTEuNywwLTIuM0w2MC41LDI3TDQ2LjcsMTMuNmMtMC42LTAuNi0xLjUtMC42LTIuMiwwbDAsMGMtMC42LDAuNi0wLjgsMS43LDAsMi4zICAgTDU5LDMwLjFjMC42LDAuNiwwLjYsMS43LDAsMi4zTDQ0LjIsNDcuMWMtMC42LDAuNi0wLjYsMS43LDAsMi4zbDAsMGMwLjYsMC42LDEuNywwLjUsMi4yLDBsMTMuNy0xMy42YzAsMCwwLDAsMC4xLTAuMUw2My42LDMyLjR6ICAgIi8+JiN4YTsJPHBhdGggZmlsbD0iIzM5OTlDNiIgZD0iTTAuNCwzMi40Yy0wLjYtMC42LTAuNS0xLjcsMC0yLjNMMy41LDI3bDEzLjgtMTMuNGMwLjYtMC42LDEuNS0wLjYsMi4yLDBsMCwwYzAuNiwwLjYsMC44LDEuNywwLDIuMyAgIEw1LjMsMzAuMWMtMC42LDAuNi0wLjYsMS43LDAsMi4zbDE0LjUsMTQuN2MwLjYsMC42LDAuNiwxLjcsMCwyLjNsMCwwYy0wLjYsMC42LTEuNywwLjUtMi4yLDBMMy42LDM2YzAsMCwwLDAtMC4xLTAuMUwwLjQsMzIuNHoiLz4mI3hhOwk8cG9seWdvbiBmaWxsPSIjRkNEMTE2IiBwb2ludHM9IjQ3LjYsMi41IDI4LjEsMi41IDE3LjYsMzIuMSAzMC40LDMyLjIgMjAuNCw2MS41IDQ4LDIyLjQgMzQuNiwyMi40ICAiLz4mI3hhOwk8cG9seWdvbiBvcGFjaXR5PSIwLjMiIGZpbGw9IiNGRjhDMDAiIGVuYWJsZS1iYWNrZ3JvdW5kPSJuZXcgICAgIiBwb2ludHM9IjM0LjYsMjIuNCA0Ny42LDIuNSAzNy40LDIuNSAyNi42LDI3LjEgMzkuNCwyNy4yICAgIDIwLjQsNjEuNSA0OCwyMi40ICAiLz4mI3hhOzwvZz4mI3hhOzwvc3ZnPg==;" parent="1" vertex="1"><mxGeometry x="1458.75" y="660" width="42.5" height="42.5" as="geometry"/></mxCell><mxCell id="wjCRLZ0c9aTvCrKljIkT-5" value="&lt;font style=&quot;font-size: 12px&quot;&gt;Azure Function&amp;nbsp; Logging&lt;/font&gt;" style="text;html=1;strokeColor=none;fillColor=none;align=center;verticalAlign=middle;whiteSpace=wrap;rounded=0;fontSize=8;" parent="1" vertex="1"><mxGeometry x="1430" y="707" width="100" height="20" as="geometry"/></mxCell><mxCell id="-d5AeIZ2xOsEHuWnEWz_-6" style="edgeStyle=orthogonalEdgeStyle;rounded=0;orthogonalLoop=1;jettySize=auto;html=1;entryX=0;entryY=0.5;entryDx=0;entryDy=0;endArrow=classic;endFill=1;startArrow=classic;startFill=1;" parent="1" source="wjCRLZ0c9aTvCrKljIkT-14" target="-d5AeIZ2xOsEHuWnEWz_-3" edge="1"><mxGeometry relative="1" as="geometry"/></mxCell><mxCell id="wjCRLZ0c9aTvCrKljIkT-14" value="" style="shape=image;verticalLabelPosition=bottom;labelBackgroundColor=#ffffff;verticalAlign=top;aspect=fixed;imageAspect=0;image=data:image/svg+xml,PHN2ZyB4bWxucz0iaHR0cDovL3d3dy53My5vcmcvMjAwMC9zdmciIHhtbG5zOnhsaW5rPSJodHRwOi8vd3d3LnczLm9yZy8xOTk5L3hsaW5rIiB2ZXJzaW9uPSIxLjEiIGlkPSJMYXllcl8xIiB4PSIwcHgiIHk9IjBweCIgd2lkdGg9IjUwcHgiIGhlaWdodD0iNTBweCIgdmlld0JveD0iMCAwIDUwIDUwIiBlbmFibGUtYmFja2dyb3VuZD0ibmV3IDAgMCA1MCA1MCIgeG1sOnNwYWNlPSJwcmVzZXJ2ZSI+JiN4YTs8cmVjdCB4PSIxIiB5PSIyNiIgZmlsbC1ydWxlPSJldmVub2RkIiBjbGlwLXJ1bGU9ImV2ZW5vZGQiIGZpbGw9IiNBMEExQTIiIHdpZHRoPSIxMCIgaGVpZ2h0PSIxMCIvPiYjeGE7PHJlY3QgeD0iMSIgeT0iMTMiIGZpbGwtcnVsZT0iZXZlbm9kZCIgY2xpcC1ydWxlPSJldmVub2RkIiBmaWxsPSIjQTBBMUEyIiB3aWR0aD0iMTAiIGhlaWdodD0iMTAiLz4mI3hhOzxyZWN0IHg9IjEiIHk9IjM5IiBmaWxsLXJ1bGU9ImV2ZW5vZGQiIGNsaXAtcnVsZT0iZXZlbm9kZCIgZmlsbD0iI0EwQTFBMiIgd2lkdGg9IjEwIiBoZWlnaHQ9IjEwIi8+JiN4YTs8cmVjdCB4PSIxNCIgeT0iMzkiIGZpbGwtcnVsZT0iZXZlbm9kZCIgY2xpcC1ydWxlPSJldmVub2RkIiBmaWxsPSIjQTBBMUEyIiB3aWR0aD0iMTAiIGhlaWdodD0iMTAiLz4mI3hhOzxyZWN0IHg9IjI3IiB5PSIzOSIgZmlsbC1ydWxlPSJldmVub2RkIiBjbGlwLXJ1bGU9ImV2ZW5vZGQiIGZpbGw9IiNBMEExQTIiIHdpZHRoPSIxMCIgaGVpZ2h0PSIxMCIvPiYjeGE7PGc+JiN4YTsJPGc+JiN4YTsJCTxnPiYjeGE7CQkJPHBhdGggZmlsbC1ydWxlPSJldmVub2RkIiBjbGlwLXJ1bGU9ImV2ZW5vZGQiIGZpbGw9IiMwMDcyQzYiIGQ9Ik0zMS41LDFDMjEuNzA1LDEsMTQsOC43MDUsMTQsMTguNVYzNmMwLDAsMTIuOTk0LDAsMTcuNSwwICAgICBDNDEuMjk1LDM2LDQ5LDI4LjI5NSw0OSwxOC41QzQ5LDguNzA1LDQxLjI5NSwxLDMxLjUsMXoiLz4mI3hhOwkJPC9nPiYjeGE7CTwvZz4mI3hhOzwvZz4mI3hhOzxwYXRoIGZpbGwtcnVsZT0iZXZlbm9kZCIgY2xpcC1ydWxlPSJldmVub2RkIiBmaWxsPSIjRkZGRkZGIiBkPSJNMjEsMTZsMywwdjExaC0zVjE2eiIvPiYjeGE7PHBhdGggZmlsbC1ydWxlPSJldmVub2RkIiBjbGlwLXJ1bGU9ImV2ZW5vZGQiIGZpbGw9IiNGRkZGRkYiIGQ9Ik0yOCwxOWgzdjhoLTNWMTl6Ii8+JiN4YTs8cGF0aCBmaWxsLXJ1bGU9ImV2ZW5vZGQiIGNsaXAtcnVsZT0iZXZlbm9kZCIgZmlsbD0iI0ZGRkZGRiIgZD0iTTM1LDEyaDN2MTVoLTNWMTJ6Ii8+JiN4YTs8L3N2Zz4=;" parent="1" vertex="1"><mxGeometry x="832" y="650" width="39" height="39" as="geometry"/></mxCell><mxCell id="wjCRLZ0c9aTvCrKljIkT-15" value="Pipeline Logging" style="rounded=1;whiteSpace=wrap;html=1;fillColor=#e1d5e7;strokeColor=#9673a6;" parent="1" vertex="1"><mxGeometry x="1681" y="20" width="120" height="60" as="geometry"/></mxCell><mxCell id="wjCRLZ0c9aTvCrKljIkT-18" value="&lt;font style=&quot;font-size: 12px&quot;&gt;Azure Data Factory Logging&lt;/font&gt;" style="text;html=1;strokeColor=none;fillColor=none;align=center;verticalAlign=middle;whiteSpace=wrap;rounded=0;fontSize=8;" parent="1" vertex="1"><mxGeometry x="799" y="697.5" width="100" height="20" as="geometry"/></mxCell><mxCell id="wjCRLZ0c9aTvCrKljIkT-21" value="" style="shape=flexArrow;endArrow=none;html=1;fillColor=#dae8fc;strokeColor=#6c8ebf;startArrow=block;endFill=0;" parent="1" edge="1"><mxGeometry width="50" height="50" relative="1" as="geometry"><mxPoint x="428" y="519" as="sourcePoint"/><mxPoint x="428.5" y="451" as="targetPoint"/></mxGeometry></mxCell><mxCell id="wjCRLZ0c9aTvCrKljIkT-24" value="&lt;font size=&quot;1&quot; color=&quot;#ff8000&quot;&gt;&lt;b style=&quot;font-size: 12px&quot;&gt;2&lt;/b&gt;&lt;/font&gt;" style="ellipse;whiteSpace=wrap;html=1;aspect=fixed;fillColor=#ffe6cc;fontSize=8;strokeColor=#d79b00;" parent="1" vertex="1"><mxGeometry x="620" y="281" width="20" height="20" as="geometry"/></mxCell><mxCell id="eJZ1HyhuCLDy-T5cez-e-1" value="&lt;h1&gt;&lt;font style=&quot;font-size: 13px&quot;&gt;Trigger&lt;/font&gt;&lt;font style=&quot;font-size: 20px&quot;&gt;&amp;nbsp;&lt;/font&gt;&lt;/h1&gt;&lt;p&gt;&lt;span style=&quot;color: rgba(0 , 0 , 0 , 0) ; font-family: monospace ; font-size: 0px&quot;&gt;%3CmxGraphModel%3E%3Croot%3E%3CmxCell%20id%3D%220%22%2F%3E%3CmxCell%20id%3D%221%22%20parent%3D%220%22%2F%3E%3CmxCell%20id%3D%222%22%20value%3D%22%26lt%3Bfont%20size%3D%26quot%3B1%26quot%3B%26gt%3B%26lt%3Bb%20style%3D%26quot%3Bfont-size%3A%2012px%26quot%3B%26gt%3B1%26lt%3B%2Fb%26gt%3B%26lt%3B%2Ffont%26gt%3B%22%20style%3D%22ellipse%3BwhiteSpace%3Dwrap%3Bhtml%3D1%3Baspect%3Dfixed%3BfillColor%3D%23d5e8d4%3BfontSize%3D8%3BstrokeColor%3D%2382b366%3B%22%20vertex%3D%221%22%20parent%3D%221%22%3E%3CmxGeometry%20x%3D%22188%22%20y%3D%2286%22%20width%3D%2220%22%20height%3D%2220%22%20as%3D%22geometry%22%2F%3E%3C%2FmxCell%3E%3C%2Froot%3E%3C%2FmxGraphModel%3E&lt;/span&gt;&lt;br&gt;&lt;/p&gt;" style="text;html=1;strokeColor=none;fillColor=none;spacing=5;spacingTop=-20;whiteSpace=wrap;overflow=hidden;rounded=0;" parent="1" vertex="1"><mxGeometry x="1868.5" y="7.5" width="237" height="45" as="geometry"/></mxCell><mxCell id="Az-5ZL2YKviKSRp2sKgw-4" value="&lt;font size=&quot;1&quot;&gt;&lt;b style=&quot;font-size: 12px&quot;&gt;2&lt;/b&gt;&lt;/font&gt;" style="ellipse;whiteSpace=wrap;html=1;aspect=fixed;fillColor=#d5e8d4;fontSize=8;strokeColor=#82b366;" parent="1" vertex="1"><mxGeometry x="244.5" y="17" width="20" height="20" as="geometry"/></mxCell><mxCell id="Az-5ZL2YKviKSRp2sKgw-6" value="&lt;font color=&quot;#ff8000&quot;&gt;&lt;span style=&quot;font-size: 12px&quot;&gt;&lt;b&gt;1c&lt;/b&gt;&lt;/span&gt;&lt;/font&gt;" style="ellipse;whiteSpace=wrap;html=1;aspect=fixed;fillColor=#ffe6cc;fontSize=8;strokeColor=#d79b00;" parent="1" vertex="1"><mxGeometry x="400" y="332" width="20" height="20" as="geometry"/></mxCell><mxCell id="Yjm4VTjS9bI23XTXU-3K-3" value="" style="rounded=1;whiteSpace=wrap;html=1;" parent="1" vertex="1"><mxGeometry x="650" y="180" width="140" height="280" as="geometry"/></mxCell><mxCell id="Yjm4VTjS9bI23XTXU-3K-4" value="" style="group" parent="1" vertex="1" connectable="0"><mxGeometry x="671" y="340" width="100" height="62.5" as="geometry"/></mxCell><mxCell id="Yjm4VTjS9bI23XTXU-3K-1" value="" style="shape=image;verticalLabelPosition=bottom;labelBackgroundColor=#ffffff;verticalAlign=top;aspect=fixed;imageAspect=0;image=data:image/svg+xml,PHN2ZyB4bWxucz0iaHR0cDovL3d3dy53My5vcmcvMjAwMC9zdmciIHhtbG5zOnhsaW5rPSJodHRwOi8vd3d3LnczLm9yZy8xOTk5L3hsaW5rIiB2ZXJzaW9uPSIxLjEiIGlkPSJMYXllcl8xIiB4PSIwcHgiIHk9IjBweCIgdmlld0JveD0iMCAwIDY0IDY0IiBlbmFibGUtYmFja2dyb3VuZD0ibmV3IDAgMCA2NCA2NCIgeG1sOnNwYWNlPSJwcmVzZXJ2ZSI+JiN4YTs8Zz4mI3hhOwk8cGF0aCBmaWxsPSIjMzk5OUM2IiBkPSJNNjMuNiwzMi40YzAuNi0wLjYsMC41LTEuNywwLTIuM0w2MC41LDI3TDQ2LjcsMTMuNmMtMC42LTAuNi0xLjUtMC42LTIuMiwwbDAsMGMtMC42LDAuNi0wLjgsMS43LDAsMi4zICAgTDU5LDMwLjFjMC42LDAuNiwwLjYsMS43LDAsMi4zTDQ0LjIsNDcuMWMtMC42LDAuNi0wLjYsMS43LDAsMi4zbDAsMGMwLjYsMC42LDEuNywwLjUsMi4yLDBsMTMuNy0xMy42YzAsMCwwLDAsMC4xLTAuMUw2My42LDMyLjR6ICAgIi8+JiN4YTsJPHBhdGggZmlsbD0iIzM5OTlDNiIgZD0iTTAuNCwzMi40Yy0wLjYtMC42LTAuNS0xLjcsMC0yLjNMMy41LDI3bDEzLjgtMTMuNGMwLjYtMC42LDEuNS0wLjYsMi4yLDBsMCwwYzAuNiwwLjYsMC44LDEuNywwLDIuMyAgIEw1LjMsMzAuMWMtMC42LDAuNi0wLjYsMS43LDAsMi4zbDE0LjUsMTQuN2MwLjYsMC42LDAuNiwxLjcsMCwyLjNsMCwwYy0wLjYsMC42LTEuNywwLjUtMi4yLDBMMy42LDM2YzAsMCwwLDAtMC4xLTAuMUwwLjQsMzIuNHoiLz4mI3hhOwk8cG9seWdvbiBmaWxsPSIjRkNEMTE2IiBwb2ludHM9IjQ3LjYsMi41IDI4LjEsMi41IDE3LjYsMzIuMSAzMC40LDMyLjIgMjAuNCw2MS41IDQ4LDIyLjQgMzQuNiwyMi40ICAiLz4mI3hhOwk8cG9seWdvbiBvcGFjaXR5PSIwLjMiIGZpbGw9IiNGRjhDMDAiIGVuYWJsZS1iYWNrZ3JvdW5kPSJuZXcgICAgIiBwb2ludHM9IjM0LjYsMjIuNCA0Ny42LDIuNSAzNy40LDIuNSAyNi42LDI3LjEgMzkuNCwyNy4yICAgIDIwLjQsNjEuNSA0OCwyMi40ICAiLz4mI3hhOzwvZz4mI3hhOzwvc3ZnPg==;" parent="Yjm4VTjS9bI23XTXU-3K-4" vertex="1"><mxGeometry x="26.75" width="42.5" height="42.5" as="geometry"/></mxCell><mxCell id="Yjm4VTjS9bI23XTXU-3K-2" value="&lt;font style=&quot;font-size: 12px&quot;&gt;Azure Function&amp;nbsp; Checkpoint&lt;/font&gt;" style="text;html=1;strokeColor=none;fillColor=none;align=center;verticalAlign=middle;whiteSpace=wrap;rounded=0;fontSize=8;" parent="Yjm4VTjS9bI23XTXU-3K-4" vertex="1"><mxGeometry y="42.5" width="100" height="20" as="geometry"/></mxCell><mxCell id="Yjm4VTjS9bI23XTXU-3K-8" value="" style="group" parent="1" vertex="1" connectable="0"><mxGeometry x="670" y="190" width="108.97000000000003" height="80" as="geometry"/></mxCell><mxCell id="Yjm4VTjS9bI23XTXU-3K-5" value="" style="shape=image;verticalLabelPosition=bottom;labelBackgroundColor=#ffffff;verticalAlign=top;aspect=fixed;imageAspect=0;image=data:image/svg+xml,PHN2ZyB4bWxucz0iaHR0cDovL3d3dy53My5vcmcvMjAwMC9zdmciIHhtbG5zOnhsaW5rPSJodHRwOi8vd3d3LnczLm9yZy8xOTk5L3hsaW5rIiB4bWxuczpzdmc9Imh0dHA6Ly93d3cudzMub3JnLzIwMDAvc3ZnIiBjbGFzcz0iZnhzLXBvcnRhbC1zdmciIGlkPSJGeFN5bWJvbDAtMGZiIiByb2xlPSJwcmVzZW50YXRpb24iIHZpZXdCb3g9IjAgMCAyMy45ODEgMjIiIGZvY3VzYWJsZT0iZmFsc2UiPiYjeGE7PGc+JiN4YTs8dGl0bGUvPiYjeGE7PHRpdGxlPkNvc21vc19EQl8yPC90aXRsZT4mI3hhOzxwYXRoIGNsYXNzPSJtc3BvcnRhbGZ4LXN2Zy1jMTUiIGZpbGw9IiM1OWI0ZDkiIGQ9Ik0gMTkuOCA5LjggQSA3Ljk4IDcuOTggMCAxIDEgMTAuMyA0IGEgNy45NSA3Ljk1IDAgMCAxIDkuNSA1LjggWiIvPiYjeGE7PHBhdGggY2xhc3M9Im1zcG9ydGFsZngtc3ZnLWMwMSIgb3BhY2l0eT0iMC41IiBmaWxsPSIjZmZmZmZmIiBkPSJNIDExIDE0LjkgYSAyLjExMiAyLjExMiAwIDAgMCAtMi4xIC0yLjEgaCAtMC40IEEgMi4wMTUgMi4wMTUgMCAwIDAgNyAxMC4zIEggNC40IGEgNy44IDcuOCAwIDAgMCAxLjkgNi44IGggMi42IGEgMi4yIDIuMiAwIDAgMCAyLjEgLTIuMiBaIG0gMi42IC04LjcgdiAwLjQgaCAtMC45IGEgMi4yIDIuMiAwIDAgMCAwIDQuNCBIIDIwIGEgNy42MjQgNy42MjQgMCAwIDAgLTQuMSAtNi4yIEggMTUgYSAxLjM2NyAxLjM2NyAwIDAgMCAtMS40IDEuNCBaIG0gNi40IDYuMyBoIC00LjMgYSAxLjc5MyAxLjc5MyAwIDAgMCAtMS44IDEuOCBhIDIuOTIgMi45MiAwIDAgMCAwLjIgMC45IGEgMS44MTIgMS44MTIgMCAwIDAgLTEuMiAyLjIgYSAxLjYzMSAxLjYzMSAwIDAgMCAxLjcgMS4yIGggMS4yIGEgNy45NDcgNy45NDcgMCAwIDAgNC4yIC02LjEgWiIvPiYjeGE7PHBhdGggY2xhc3M9Im1zcG9ydGFsZngtc3ZnLWMxMyIgZmlsbD0iI2I4ZDQzMiIgZD0iTSAzLjIgNi40IGEgMC4yMTUgMC4yMTUgMCAwIDEgLTAuMiAtMC4yIEEgMi44IDIuOCAwIDAgMCAwLjIgMy40IGMgLTAuMSAwLjEgLTAuMiAtMC4xIC0wLjIgLTAuMiBBIDAuMjE1IDAuMjE1IDAgMCAxIDAuMiAzIEEgMi44IDIuOCAwIDAgMCAzIDAuMiBjIDAgLTAuMiAwLjEgLTAuMiAwLjIgLTAuMiBzIDAuMyAwIDAuMyAwLjIgQSAyLjggMi44IDAgMCAwIDYuMyAzIGEgMC4yIDAuMiAwIDAgMSAwIDAuNCBhIDIuOCAyLjggMCAwIDAgLTIuOCAyLjggYyAwIDAuMSAtMC4xIDAuMiAtMC4zIDAuMiBaIi8+JiN4YTs8cGF0aCBjbGFzcz0ibXNwb3J0YWxmeC1zdmctYzE1IiBmaWxsPSIjNTliNGQ5IiBkPSJNIDIwLjMgMjIgYyAtMC4xIDAgLTAuMSAwIC0wLjEgLTAuMSBhIDEuNjY2IDEuNjY2IDAgMCAwIC0xLjcgLTEuNiBjIC0wLjEgMCAtMC4xIDAgLTAuMSAtMC4xIHMgMCAtMC4xIDAuMSAtMC4xIGEgMS43MzUgMS43MzUgMCAwIDAgMS43IC0xLjYgYyAwIC0wLjEgMCAtMC4xIDAuMSAtMC4xIHMgMC4xIDAgMC4xIDAuMSBhIDEuNjY2IDEuNjY2IDAgMCAwIDEuNyAxLjYgYyAwLjEgMCAwLjEgMCAwLjEgMC4xIHMgMCAwLjEgLTAuMSAwLjEgYSAxLjczNSAxLjczNSAwIDAgMCAtMS43IDEuNiBjIDAuMSAwLjEgMCAwLjEgLTAuMSAwLjEgWiIvPiYjeGE7PHBhdGggZD0iTSAyMy43IDQuNiBjIC0wLjggLTEuMiAtMi42IC0xLjUgLTUuNSAtMC44IGEgMTkuNzUyIDE5Ljc1MiAwIDAgMCAtMi42IDAuOCBhIDcuODM3IDcuODM3IDAgMCAxIDEuNSAxIGMgMC41IC0wLjEgMSAtMC4zIDEuNCAtMC40IGEgOS4wNzkgOS4wNzkgMCAwIDEgMi4zIC0wLjMgYyAwLjkgMCAxLjQgMC4yIDEuNiAwLjUgYyAwLjMgMC41IDAgMS43IC0xLjYgMy42IGEgOS40MjggOS40MjggMCAwIDEgLTEgMSBhIDM0LjA3OCAzNC4wNzggMCAwIDEgLTYgNC42IEEgMjcuOSAyNy45IDAgMCAxIDcgMTcuNyBjIC0yLjkgMC45IC00LjkgMC45IC01LjMgMC4yIHMgMC40IC0yLjUgMi42IC00LjYgYSAxMS4wMTkgMTEuMDE5IDAgMCAxIC0wLjIgLTEuOCBDIDAuNyAxNC42IC0wLjQgMTcuMyAwLjQgMTguNyBhIDMuNTEgMy41MSAwIDAgMCAzIDEuMiBhIDE1LjA0NyAxNS4wNDcgMCAwIDAgNS4xIC0xLjEgYSAzMy42MjUgMzMuNjI1IDAgMCAwIDYgLTMgYSA0MS44NjkgNDEuODY5IDAgMCAwIDUuNCAtNCBhIDE3LjA0NCAxNy4wNDQgMCAwIDAgMS45IC0xLjkgYyAyIC0yLjMgMi42IC00LjEgMS45IC01LjMgWiIvPiYjeGE7PC9nPiYjeGE7PC9zdmc+;" parent="Yjm4VTjS9bI23XTXU-3K-8" vertex="1"><mxGeometry x="27.210000000000036" width="54.55" height="50" as="geometry"/></mxCell><mxCell id="Yjm4VTjS9bI23XTXU-3K-6" value="Azure Cosmos DB&amp;nbsp;&lt;br&gt;Runtime Config" style="text;html=1;strokeColor=none;fillColor=none;align=center;verticalAlign=middle;whiteSpace=wrap;rounded=0;" parent="Yjm4VTjS9bI23XTXU-3K-8" vertex="1"><mxGeometry y="60" width="108.97" height="20" as="geometry"/></mxCell><mxCell id="Yjm4VTjS9bI23XTXU-3K-9" style="edgeStyle=orthogonalEdgeStyle;rounded=0;orthogonalLoop=1;jettySize=auto;html=1;startArrow=none;endArrow=classic;endFill=1;startFill=0;" parent="1" edge="1"><mxGeometry relative="1" as="geometry"><mxPoint x="722" y="290" as="sourcePoint"/><mxPoint x="722" y="332" as="targetPoint"/></mxGeometry></mxCell><mxCell id="Yjm4VTjS9bI23XTXU-3K-12" value="" style="shape=flexArrow;endArrow=none;html=1;fillColor=#dae8fc;strokeColor=#6c8ebf;startArrow=block;endFill=0;" parent="1" source="Yjm4VTjS9bI23XTXU-3K-3" target="eHKS3EOxerdEjLhXiZhe-1" edge="1"><mxGeometry width="50" height="50" relative="1" as="geometry"><mxPoint x="669" y="396" as="sourcePoint"/><mxPoint x="669.5" y="328" as="targetPoint"/></mxGeometry></mxCell><mxCell id="Yjm4VTjS9bI23XTXU-3K-14" value="" style="shape=flexArrow;endArrow=none;html=1;fillColor=#dae8fc;strokeColor=#6c8ebf;startArrow=block;endFill=0;" parent="1" edge="1"><mxGeometry width="50" height="50" relative="1" as="geometry"><mxPoint x="864" y="324" as="sourcePoint"/><mxPoint x="790" y="324.178631051753" as="targetPoint"/></mxGeometry></mxCell><mxCell id="Yjm4VTjS9bI23XTXU-3K-16" value="Pipeline Failure" style="ellipse;whiteSpace=wrap;html=1;" parent="1" vertex="1"><mxGeometry x="679" y="98" width="84" height="38" as="geometry"/></mxCell><mxCell id="Yjm4VTjS9bI23XTXU-3K-18" value="" style="shape=flexArrow;endArrow=none;html=1;fillColor=#dae8fc;strokeColor=#6c8ebf;startArrow=block;endFill=0;entryX=0.5;entryY=0;entryDx=0;entryDy=0;exitX=0.5;exitY=1;exitDx=0;exitDy=0;" parent="1" source="Yjm4VTjS9bI23XTXU-3K-16" target="Yjm4VTjS9bI23XTXU-3K-3" edge="1"><mxGeometry width="50" height="50" relative="1" as="geometry"><mxPoint x="837" y="165.11686143572626" as="sourcePoint"/><mxPoint x="800" y="165.17863105175297" as="targetPoint"/></mxGeometry></mxCell><mxCell id="Yjm4VTjS9bI23XTXU-3K-19" value="Conditions not met" style="text;html=1;strokeColor=none;fillColor=none;align=center;verticalAlign=middle;whiteSpace=wrap;rounded=0;" parent="1" vertex="1"><mxGeometry x="740" y="147" width="60" height="20" as="geometry"/></mxCell><mxCell id="Yjm4VTjS9bI23XTXU-3K-20" value="Conditions met" style="text;html=1;strokeColor=none;fillColor=none;align=center;verticalAlign=middle;whiteSpace=wrap;rounded=0;" parent="1" vertex="1"><mxGeometry x="794" y="288.75" width="60" height="20" as="geometry"/></mxCell><mxCell id="Yjm4VTjS9bI23XTXU-3K-23" value="&lt;font color=&quot;#ff8000&quot;&gt;&lt;span style=&quot;font-size: 12px&quot;&gt;&lt;b&gt;5a&lt;/b&gt;&lt;/span&gt;&lt;/font&gt;" style="ellipse;whiteSpace=wrap;html=1;aspect=fixed;fillColor=#ffe6cc;fontSize=8;strokeColor=#d79b00;" parent="1" vertex="1"><mxGeometry x="814" y="261" width="20" height="20" as="geometry"/></mxCell><mxCell id="Yjm4VTjS9bI23XTXU-3K-24" value="" style="group" parent="1" vertex="1" connectable="0"><mxGeometry x="1040" y="219.25" width="100" height="62.5" as="geometry"/></mxCell><mxCell id="5e1EL2xwupu4-Lr9WEpU-28" value="" style="shape=image;verticalLabelPosition=bottom;labelBackgroundColor=#ffffff;verticalAlign=top;aspect=fixed;imageAspect=0;image=data:image/svg+xml,PHN2ZyB4bWxucz0iaHR0cDovL3d3dy53My5vcmcvMjAwMC9zdmciIHhtbG5zOnhsaW5rPSJodHRwOi8vd3d3LnczLm9yZy8xOTk5L3hsaW5rIiB2ZXJzaW9uPSIxLjEiIGlkPSJMYXllcl8xIiB4PSIwcHgiIHk9IjBweCIgdmlld0JveD0iMCAwIDY0IDY0IiBlbmFibGUtYmFja2dyb3VuZD0ibmV3IDAgMCA2NCA2NCIgeG1sOnNwYWNlPSJwcmVzZXJ2ZSI+JiN4YTs8Zz4mI3hhOwk8cGF0aCBmaWxsPSIjMzk5OUM2IiBkPSJNNjMuNiwzMi40YzAuNi0wLjYsMC41LTEuNywwLTIuM0w2MC41LDI3TDQ2LjcsMTMuNmMtMC42LTAuNi0xLjUtMC42LTIuMiwwbDAsMGMtMC42LDAuNi0wLjgsMS43LDAsMi4zICAgTDU5LDMwLjFjMC42LDAuNiwwLjYsMS43LDAsMi4zTDQ0LjIsNDcuMWMtMC42LDAuNi0wLjYsMS43LDAsMi4zbDAsMGMwLjYsMC42LDEuNywwLjUsMi4yLDBsMTMuNy0xMy42YzAsMCwwLDAsMC4xLTAuMUw2My42LDMyLjR6ICAgIi8+JiN4YTsJPHBhdGggZmlsbD0iIzM5OTlDNiIgZD0iTTAuNCwzMi40Yy0wLjYtMC42LTAuNS0xLjcsMC0yLjNMMy41LDI3bDEzLjgtMTMuNGMwLjYtMC42LDEuNS0wLjYsMi4yLDBsMCwwYzAuNiwwLjYsMC44LDEuNywwLDIuMyAgIEw1LjMsMzAuMWMtMC42LDAuNi0wLjYsMS43LDAsMi4zbDE0LjUsMTQuN2MwLjYsMC42LDAuNiwxLjcsMCwyLjNsMCwwYy0wLjYsMC42LTEuNywwLjUtMi4yLDBMMy42LDM2YzAsMCwwLDAtMC4xLTAuMUwwLjQsMzIuNHoiLz4mI3hhOwk8cG9seWdvbiBmaWxsPSIjRkNEMTE2IiBwb2ludHM9IjQ3LjYsMi41IDI4LjEsMi41IDE3LjYsMzIuMSAzMC40LDMyLjIgMjAuNCw2MS41IDQ4LDIyLjQgMzQuNiwyMi40ICAiLz4mI3hhOwk8cG9seWdvbiBvcGFjaXR5PSIwLjMiIGZpbGw9IiNGRjhDMDAiIGVuYWJsZS1iYWNrZ3JvdW5kPSJuZXcgICAgIiBwb2ludHM9IjM0LjYsMjIuNCA0Ny42LDIuNSAzNy40LDIuNSAyNi42LDI3LjEgMzkuNCwyNy4yICAgIDIwLjQsNjEuNSA0OCwyMi40ICAiLz4mI3hhOzwvZz4mI3hhOzwvc3ZnPg==;" parent="Yjm4VTjS9bI23XTXU-3K-24" vertex="1"><mxGeometry x="36.75" width="42.5" height="42.5" as="geometry"/></mxCell><mxCell id="5e1EL2xwupu4-Lr9WEpU-73" value="&lt;font style=&quot;font-size: 12px&quot;&gt;Azure Function&amp;nbsp; TDQ checker&lt;/font&gt;" style="text;html=1;strokeColor=none;fillColor=none;align=center;verticalAlign=middle;whiteSpace=wrap;rounded=0;fontSize=8;" parent="Yjm4VTjS9bI23XTXU-3K-24" vertex="1"><mxGeometry x="7" y="42.5" width="100" height="20" as="geometry"/></mxCell><mxCell id="5e1EL2xwupu4-Lr9WEpU-35" value="" style="shape=image;verticalLabelPosition=bottom;labelBackgroundColor=#ffffff;verticalAlign=top;aspect=fixed;imageAspect=0;image=data:image/svg+xml,PHN2ZyB4bWxucz0iaHR0cDovL3d3dy53My5vcmcvMjAwMC9zdmciIHhtbG5zOnhsaW5rPSJodHRwOi8vd3d3LnczLm9yZy8xOTk5L3hsaW5rIiB4bWxuczpzdmc9Imh0dHA6Ly93d3cudzMub3JnLzIwMDAvc3ZnIiBjbGFzcz0iZnhzLXBvcnRhbC1zdmciIGlkPSJGeFN5bWJvbDAtMGZiIiByb2xlPSJwcmVzZW50YXRpb24iIHZpZXdCb3g9IjAgMCAyMy45ODEgMjIiIGZvY3VzYWJsZT0iZmFsc2UiPiYjeGE7PGc+JiN4YTs8dGl0bGUvPiYjeGE7PHRpdGxlPkNvc21vc19EQl8yPC90aXRsZT4mI3hhOzxwYXRoIGNsYXNzPSJtc3BvcnRhbGZ4LXN2Zy1jMTUiIGZpbGw9IiM1OWI0ZDkiIGQ9Ik0gMTkuOCA5LjggQSA3Ljk4IDcuOTggMCAxIDEgMTAuMyA0IGEgNy45NSA3Ljk1IDAgMCAxIDkuNSA1LjggWiIvPiYjeGE7PHBhdGggY2xhc3M9Im1zcG9ydGFsZngtc3ZnLWMwMSIgb3BhY2l0eT0iMC41IiBmaWxsPSIjZmZmZmZmIiBkPSJNIDExIDE0LjkgYSAyLjExMiAyLjExMiAwIDAgMCAtMi4xIC0yLjEgaCAtMC40IEEgMi4wMTUgMi4wMTUgMCAwIDAgNyAxMC4zIEggNC40IGEgNy44IDcuOCAwIDAgMCAxLjkgNi44IGggMi42IGEgMi4yIDIuMiAwIDAgMCAyLjEgLTIuMiBaIG0gMi42IC04LjcgdiAwLjQgaCAtMC45IGEgMi4yIDIuMiAwIDAgMCAwIDQuNCBIIDIwIGEgNy42MjQgNy42MjQgMCAwIDAgLTQuMSAtNi4yIEggMTUgYSAxLjM2NyAxLjM2NyAwIDAgMCAtMS40IDEuNCBaIG0gNi40IDYuMyBoIC00LjMgYSAxLjc5MyAxLjc5MyAwIDAgMCAtMS44IDEuOCBhIDIuOTIgMi45MiAwIDAgMCAwLjIgMC45IGEgMS44MTIgMS44MTIgMCAwIDAgLTEuMiAyLjIgYSAxLjYzMSAxLjYzMSAwIDAgMCAxLjcgMS4yIGggMS4yIGEgNy45NDcgNy45NDcgMCAwIDAgNC4yIC02LjEgWiIvPiYjeGE7PHBhdGggY2xhc3M9Im1zcG9ydGFsZngtc3ZnLWMxMyIgZmlsbD0iI2I4ZDQzMiIgZD0iTSAzLjIgNi40IGEgMC4yMTUgMC4yMTUgMCAwIDEgLTAuMiAtMC4yIEEgMi44IDIuOCAwIDAgMCAwLjIgMy40IGMgLTAuMSAwLjEgLTAuMiAtMC4xIC0wLjIgLTAuMiBBIDAuMjE1IDAuMjE1IDAgMCAxIDAuMiAzIEEgMi44IDIuOCAwIDAgMCAzIDAuMiBjIDAgLTAuMiAwLjEgLTAuMiAwLjIgLTAuMiBzIDAuMyAwIDAuMyAwLjIgQSAyLjggMi44IDAgMCAwIDYuMyAzIGEgMC4yIDAuMiAwIDAgMSAwIDAuNCBhIDIuOCAyLjggMCAwIDAgLTIuOCAyLjggYyAwIDAuMSAtMC4xIDAuMiAtMC4zIDAuMiBaIi8+JiN4YTs8cGF0aCBjbGFzcz0ibXNwb3J0YWxmeC1zdmctYzE1IiBmaWxsPSIjNTliNGQ5IiBkPSJNIDIwLjMgMjIgYyAtMC4xIDAgLTAuMSAwIC0wLjEgLTAuMSBhIDEuNjY2IDEuNjY2IDAgMCAwIC0xLjcgLTEuNiBjIC0wLjEgMCAtMC4xIDAgLTAuMSAtMC4xIHMgMCAtMC4xIDAuMSAtMC4xIGEgMS43MzUgMS43MzUgMCAwIDAgMS43IC0xLjYgYyAwIC0wLjEgMCAtMC4xIDAuMSAtMC4xIHMgMC4xIDAgMC4xIDAuMSBhIDEuNjY2IDEuNjY2IDAgMCAwIDEuNyAxLjYgYyAwLjEgMCAwLjEgMCAwLjEgMC4xIHMgMCAwLjEgLTAuMSAwLjEgYSAxLjczNSAxLjczNSAwIDAgMCAtMS43IDEuNiBjIDAuMSAwLjEgMCAwLjEgLTAuMSAwLjEgWiIvPiYjeGE7PHBhdGggZD0iTSAyMy43IDQuNiBjIC0wLjggLTEuMiAtMi42IC0xLjUgLTUuNSAtMC44IGEgMTkuNzUyIDE5Ljc1MiAwIDAgMCAtMi42IDAuOCBhIDcuODM3IDcuODM3IDAgMCAxIDEuNSAxIGMgMC41IC0wLjEgMSAtMC4zIDEuNCAtMC40IGEgOS4wNzkgOS4wNzkgMCAwIDEgMi4zIC0wLjMgYyAwLjkgMCAxLjQgMC4yIDEuNiAwLjUgYyAwLjMgMC41IDAgMS43IC0xLjYgMy42IGEgOS40MjggOS40MjggMCAwIDEgLTEgMSBhIDM0LjA3OCAzNC4wNzggMCAwIDEgLTYgNC42IEEgMjcuOSAyNy45IDAgMCAxIDcgMTcuNyBjIC0yLjkgMC45IC00LjkgMC45IC01LjMgMC4yIHMgMC40IC0yLjUgMi42IC00LjYgYSAxMS4wMTkgMTEuMDE5IDAgMCAxIC0wLjIgLTEuOCBDIDAuNyAxNC42IC0wLjQgMTcuMyAwLjQgMTguNyBhIDMuNTEgMy41MSAwIDAgMCAzIDEuMiBhIDE1LjA0NyAxNS4wNDcgMCAwIDAgNS4xIC0xLjEgYSAzMy42MjUgMzMuNjI1IDAgMCAwIDYgLTMgYSA0MS44NjkgNDEuODY5IDAgMCAwIDUuNCAtNCBhIDE3LjA0NCAxNy4wNDQgMCAwIDAgMS45IC0xLjkgYyAyIC0yLjMgMi42IC00LjEgMS45IC01LjMgWiIvPiYjeGE7PC9nPiYjeGE7PC9zdmc+;" parent="1" vertex="1"><mxGeometry x="1175.45" y="343.37" width="54.55" height="50" as="geometry"/></mxCell><mxCell id="5e1EL2xwupu4-Lr9WEpU-36" value="Azure Cosmos DB Runtime Table Config&amp;nbsp;" style="text;html=1;strokeColor=none;fillColor=none;align=center;verticalAlign=middle;whiteSpace=wrap;rounded=0;" parent="1" vertex="1"><mxGeometry x="1160" y="408" width="95" height="20" as="geometry"/></mxCell><mxCell id="Yjm4VTjS9bI23XTXU-3K-28" style="edgeStyle=orthogonalEdgeStyle;rounded=0;orthogonalLoop=1;jettySize=auto;html=1;entryX=0;entryY=0.5;entryDx=0;entryDy=0;startArrow=classic;startFill=1;endArrow=classic;endFill=1;" parent="1" source="Yjm4VTjS9bI23XTXU-3K-26" target="5e1EL2xwupu4-Lr9WEpU-28" edge="1"><mxGeometry relative="1" as="geometry"/></mxCell><mxCell id="Yjm4VTjS9bI23XTXU-3K-26" value="" style="shape=image;verticalLabelPosition=bottom;labelBackgroundColor=#ffffff;verticalAlign=top;aspect=fixed;imageAspect=0;image=data:image/svg+xml,PHN2ZyB4bWxucz0iaHR0cDovL3d3dy53My5vcmcvMjAwMC9zdmciIHhtbG5zOnhsaW5rPSJodHRwOi8vd3d3LnczLm9yZy8xOTk5L3hsaW5rIiB2ZXJzaW9uPSIxLjEiIGlkPSJMYXllcl8xIiB4PSIwcHgiIHk9IjBweCIgd2lkdGg9IjUwcHgiIGhlaWdodD0iNTBweCIgdmlld0JveD0iMCAwIDUwIDUwIiBlbmFibGUtYmFja2dyb3VuZD0ibmV3IDAgMCA1MCA1MCIgeG1sOnNwYWNlPSJwcmVzZXJ2ZSI+JiN4YTs8Zz4mI3hhOwk8cGF0aCBmaWxsPSIjM0UzRTNFIiBkPSJNNi4xLDYuOHYzNi4zYzAsMy44LDguNCw2LjgsMTguOSw2LjhWNi44SDYuMXoiLz4mI3hhOwk8cGF0aCBmaWxsPSIjQTBBMUEyIiBkPSJNMjQuNyw1MEgyNWMxMC40LDAsMTguOS0zLjEsMTguOS02LjhWNi44SDI0LjdWNTB6Ii8+JiN4YTsJPHBhdGggZmlsbD0iI0ZGRkZGRiIgZD0iTTQzLjksNi44YzAsMy44LTguNCw2LjgtMTguOSw2LjhTNi4xLDEwLjYsNi4xLDYuOEM2LjEsMy4xLDE0LjYsMCwyNSwwUzQzLjksMy4xLDQzLjksNi44Ii8+JiN4YTsJPHBhdGggZmlsbD0iIzdGQkEwMCIgZD0iTTQwLDYuNGMwLDIuNS02LjcsNC41LTE1LDQuNXMtMTUtMi0xNS00LjVjMC0yLjUsNi43LTQuNSwxNS00LjVTNDAsMy45LDQwLDYuNCIvPiYjeGE7CTxwYXRoIGZpbGw9IiNCOEQ0MzIiIGQ9Ik0zNi45LDkuMmMyLTAuOCwzLjEtMS43LDMuMS0yLjhjMC0yLjUtNi43LTQuNS0xNS00LjVjLTguMywwLTE1LDItMTUsNC41YzAsMSwxLjIsMiwzLjEsMi44ICAgYzIuNy0xLjEsNy0xLjgsMTEuOS0xLjhDMjkuOCw3LjQsMzQuMSw4LjEsMzYuOSw5LjIiLz4mI3hhOzwvZz4mI3hhOzxnPiYjeGE7CTxwYXRoIGZpbGw9IiMzOTk5QzYiIGQ9Ik0yNC43LDUwVjMyYy0yLjgsMC01LjItMS41LTYuNi0zLjdjLTEuNCwyLjItMy43LDMuNy02LjUsMy43Yy0yLjIsMC00LjEtMC45LTUuNS0yLjR2MTMuNiAgIEM2LjEsNDYuOSwxNC40LDQ5LjksMjQuNyw1MHoiLz4mI3hhOwk8cGF0aCBmaWxsPSIjMzk5OUM2IiBkPSJNMjUsNTBMMjUsNTBMMjUsNTBDMjUsNTAsMjUsNTAsMjUsNTB6Ii8+JiN4YTsJPHBhdGggZmlsbD0iIzU5QjREOSIgZD0iTTI0LjcsNTBIMjVDMjQuOSw1MCwyNC44LDUwLDI0LjcsNTBMMjQuNyw1MHoiLz4mI3hhOwk8cGF0aCBmaWxsPSIjNTlCNEQ5IiBkPSJNMzguMSwzMmMtMi44LDAtNS4zLTEuNS02LjctMy43Yy0xLjMsMi4yLTMuNywzLjYtNi41LDMuN3YxOGgwYzEwLjQsMCwxOC45LTMuMSwxOC45LTYuOFYyOS41ICAgQzQyLjQsMzEsNDAuNCwzMiwzOC4xLDMyeiIvPiYjeGE7CTxwYXRoIGZpbGw9IiM1OUI0RDkiIGQ9Ik0yNC44LDMyQzI0LjgsMzIsMjQuOCwzMiwyNC44LDMybC0wLjEsMThjMC4xLDAsMC4xLDAsMC4yLDBoMFYzMkMyNC45LDMyLDI0LjksMzIsMjQuOCwzMnoiLz4mI3hhOzwvZz4mI3hhOzwvc3ZnPg==;" parent="1" vertex="1"><mxGeometry x="899" y="348" width="50" height="50" as="geometry"/></mxCell><mxCell id="Yjm4VTjS9bI23XTXU-3K-27" value="Data Lake Raw" style="text;html=1;strokeColor=none;fillColor=none;align=center;verticalAlign=middle;whiteSpace=wrap;rounded=0;" parent="1" vertex="1"><mxGeometry x="891.5" y="406" width="65" height="20" as="geometry"/></mxCell><mxCell id="Yjm4VTjS9bI23XTXU-3K-29" style="edgeStyle=orthogonalEdgeStyle;rounded=0;orthogonalLoop=1;jettySize=auto;html=1;startArrow=none;startFill=0;endArrow=classic;endFill=1;exitX=0.5;exitY=1;exitDx=0;exitDy=0;" parent="1" source="5e1EL2xwupu4-Lr9WEpU-73" target="5e1EL2xwupu4-Lr9WEpU-80" edge="1"><mxGeometry relative="1" as="geometry"><mxPoint x="1098" y="290" as="sourcePoint"/></mxGeometry></mxCell><mxCell id="Yjm4VTjS9bI23XTXU-3K-30" style="edgeStyle=orthogonalEdgeStyle;rounded=0;orthogonalLoop=1;jettySize=auto;html=1;entryX=0.5;entryY=0;entryDx=0;entryDy=0;startArrow=classic;startFill=1;endArrow=classic;endFill=1;" parent="1" source="5e1EL2xwupu4-Lr9WEpU-73" target="5e1EL2xwupu4-Lr9WEpU-35" edge="1"><mxGeometry relative="1" as="geometry"/></mxCell><mxCell id="Yjm4VTjS9bI23XTXU-3K-31" value="&lt;font size=&quot;1&quot; color=&quot;#ff8000&quot;&gt;&lt;b style=&quot;font-size: 12px&quot;&gt;6a&lt;/b&gt;&lt;/font&gt;" style="ellipse;whiteSpace=wrap;html=1;aspect=fixed;fillColor=#ffe6cc;fontSize=8;strokeColor=#d79b00;" parent="1" vertex="1"><mxGeometry x="980" y="311" width="20" height="20" as="geometry"/></mxCell><mxCell id="Yjm4VTjS9bI23XTXU-3K-33" value="&lt;font color=&quot;#ff8000&quot;&gt;&lt;span style=&quot;font-size: 12px&quot;&gt;&lt;b&gt;6b&lt;/b&gt;&lt;/span&gt;&lt;/font&gt;" style="ellipse;whiteSpace=wrap;html=1;aspect=fixed;fillColor=#ffe6cc;fontSize=8;strokeColor=#d79b00;" parent="1" vertex="1"><mxGeometry x="1101" y="311" width="20" height="20" as="geometry"/></mxCell><mxCell id="Yjm4VTjS9bI23XTXU-3K-34" value="&lt;font size=&quot;1&quot; color=&quot;#ff8000&quot;&gt;&lt;b style=&quot;font-size: 12px&quot;&gt;6c&lt;/b&gt;&lt;/font&gt;" style="ellipse;whiteSpace=wrap;html=1;aspect=fixed;fillColor=#ffe6cc;fontSize=8;strokeColor=#d79b00;" parent="1" vertex="1"><mxGeometry x="1210" y="312" width="20" height="20" as="geometry"/></mxCell><mxCell id="Yjm4VTjS9bI23XTXU-3K-49" value="" style="shape=flexArrow;endArrow=none;html=1;fillColor=#dae8fc;strokeColor=#6c8ebf;startArrow=block;endFill=0;rounded=0;" parent="1" edge="1"><mxGeometry width="50" height="50" relative="1" as="geometry"><mxPoint x="1526" y="321" as="sourcePoint"/><mxPoint x="1449" y="321.178631051753" as="targetPoint"/></mxGeometry></mxCell><mxCell id="Yjm4VTjS9bI23XTXU-3K-52" value="&lt;font color=&quot;#ff8000&quot;&gt;&lt;span style=&quot;font-size: 12px&quot;&gt;&lt;b&gt;5b&lt;/b&gt;&lt;/span&gt;&lt;/font&gt;" style="ellipse;whiteSpace=wrap;html=1;aspect=fixed;fillColor=#ffe6cc;fontSize=8;strokeColor=#d79b00;" parent="1" vertex="1"><mxGeometry x="680" y="147" width="20" height="20" as="geometry"/></mxCell><mxCell id="Yjm4VTjS9bI23XTXU-3K-53" value="" style="rounded=0;whiteSpace=wrap;html=1;fillColor=#f5f5f5;strokeColor=#666666;fontColor=#333333;" parent="1" vertex="1"><mxGeometry x="1527" y="179" width="400" height="285" as="geometry"/></mxCell><mxCell id="Yjm4VTjS9bI23XTXU-3K-54" value="" style="rounded=1;whiteSpace=wrap;html=1;strokeColor=#d6b656;fillColor=#fff2cc;fontSize=8;" parent="1" vertex="1"><mxGeometry x="1555" y="211.5" width="341" height="77.5" as="geometry"/></mxCell><mxCell id="Yjm4VTjS9bI23XTXU-3K-55" value="&lt;span style=&quot;font-size: 15px&quot;&gt;&lt;b&gt;&lt;font color=&quot;#ffb570&quot;&gt;Curated Pipeline&amp;nbsp;&lt;/font&gt;&lt;/b&gt;&lt;/span&gt;" style="text;html=1;strokeColor=none;fillColor=none;align=center;verticalAlign=middle;whiteSpace=wrap;rounded=0;fontSize=8;" parent="1" vertex="1"><mxGeometry x="1652" y="185" width="162" height="20" as="geometry"/></mxCell><mxCell id="Yjm4VTjS9bI23XTXU-3K-61" style="edgeStyle=orthogonalEdgeStyle;rounded=0;orthogonalLoop=1;jettySize=auto;html=1;entryX=0;entryY=0.75;entryDx=0;entryDy=0;startArrow=classic;startFill=1;endArrow=classic;endFill=1;" parent="1" source="Yjm4VTjS9bI23XTXU-3K-57" target="5e1EL2xwupu4-Lr9WEpU-32" edge="1"><mxGeometry relative="1" as="geometry"/></mxCell><mxCell id="Yjm4VTjS9bI23XTXU-3K-57" value="" style="shape=image;verticalLabelPosition=bottom;labelBackgroundColor=#ffffff;verticalAlign=top;aspect=fixed;imageAspect=0;image=data:image/svg+xml,PHN2ZyB4bWxucz0iaHR0cDovL3d3dy53My5vcmcvMjAwMC9zdmciIHhtbG5zOnhsaW5rPSJodHRwOi8vd3d3LnczLm9yZy8xOTk5L3hsaW5rIiB2ZXJzaW9uPSIxLjEiIGlkPSJMYXllcl8xIiB4PSIwcHgiIHk9IjBweCIgdmlld0JveD0iMCAwIDY0IDY0IiBlbmFibGUtYmFja2dyb3VuZD0ibmV3IDAgMCA2NCA2NCIgeG1sOnNwYWNlPSJwcmVzZXJ2ZSI+JiN4YTs8Zz4mI3hhOwk8cGF0aCBmaWxsPSIjMzk5OUM2IiBkPSJNNjMuNiwzMi40YzAuNi0wLjYsMC41LTEuNywwLTIuM0w2MC41LDI3TDQ2LjcsMTMuNmMtMC42LTAuNi0xLjUtMC42LTIuMiwwbDAsMGMtMC42LDAuNi0wLjgsMS43LDAsMi4zICAgTDU5LDMwLjFjMC42LDAuNiwwLjYsMS43LDAsMi4zTDQ0LjIsNDcuMWMtMC42LDAuNi0wLjYsMS43LDAsMi4zbDAsMGMwLjYsMC42LDEuNywwLjUsMi4yLDBsMTMuNy0xMy42YzAsMCwwLDAsMC4xLTAuMUw2My42LDMyLjR6ICAgIi8+JiN4YTsJPHBhdGggZmlsbD0iIzM5OTlDNiIgZD0iTTAuNCwzMi40Yy0wLjYtMC42LTAuNS0xLjcsMC0yLjNMMy41LDI3bDEzLjgtMTMuNGMwLjYtMC42LDEuNS0wLjYsMi4yLDBsMCwwYzAuNiwwLjYsMC44LDEuNywwLDIuMyAgIEw1LjMsMzAuMWMtMC42LDAuNi0wLjYsMS43LDAsMi4zbDE0LjUsMTQuN2MwLjYsMC42LDAuNiwxLjcsMCwyLjNsMCwwYy0wLjYsMC42LTEuNywwLjUtMi4yLDBMMy42LDM2YzAsMCwwLDAtMC4xLTAuMUwwLjQsMzIuNHoiLz4mI3hhOwk8cG9seWdvbiBmaWxsPSIjRkNEMTE2IiBwb2ludHM9IjQ3LjYsMi41IDI4LjEsMi41IDE3LjYsMzIuMSAzMC40LDMyLjIgMjAuNCw2MS41IDQ4LDIyLjQgMzQuNiwyMi40ICAiLz4mI3hhOwk8cG9seWdvbiBvcGFjaXR5PSIwLjMiIGZpbGw9IiNGRjhDMDAiIGVuYWJsZS1iYWNrZ3JvdW5kPSJuZXcgICAgIiBwb2ludHM9IjM0LjYsMjIuNCA0Ny42LDIuNSAzNy40LDIuNSAyNi42LDI3LjEgMzkuNCwyNy4yICAgIDIwLjQsNjEuNSA0OCwyMi40ICAiLz4mI3hhOzwvZz4mI3hhOzwvc3ZnPg==;" parent="1" vertex="1"><mxGeometry x="1718.75" y="220" width="42.5" height="42.5" as="geometry"/></mxCell><mxCell id="Yjm4VTjS9bI23XTXU-3K-58" value="&lt;font style=&quot;font-size: 12px&quot;&gt;Azure Function&amp;nbsp; Time Varying&lt;/font&gt;" style="text;html=1;strokeColor=none;fillColor=none;align=center;verticalAlign=middle;whiteSpace=wrap;rounded=0;fontSize=8;" parent="1" vertex="1"><mxGeometry x="1689" y="262.5" width="100" height="20" as="geometry"/></mxCell><mxCell id="Yjm4VTjS9bI23XTXU-3K-60" style="edgeStyle=orthogonalEdgeStyle;rounded=0;orthogonalLoop=1;jettySize=auto;html=1;entryX=0;entryY=0.5;entryDx=0;entryDy=0;startArrow=classic;startFill=1;endArrow=classic;endFill=1;" parent="1" source="Yjm4VTjS9bI23XTXU-3K-59" target="Yjm4VTjS9bI23XTXU-3K-57" edge="1"><mxGeometry relative="1" as="geometry"/></mxCell><mxCell id="Yjm4VTjS9bI23XTXU-3K-59" value="Snowflake&#10; (Structured Layer)" style="shape=image;verticalLabelPosition=bottom;labelBackgroundColor=none;verticalAlign=top;aspect=fixed;imageAspect=0;image=https://globalcorporateventuring.com/content/uploads/2018/08/Snowflake_Computing_blue_icon.png;labelPosition=center;align=center;" parent="1" vertex="1"><mxGeometry x="1629" y="348" width="39" height="39.27" as="geometry"/></mxCell><mxCell id="5e1EL2xwupu4-Lr9WEpU-32" value="Snowflake&#10; (Curated Layer)" style="shape=image;verticalLabelPosition=bottom;labelBackgroundColor=none;verticalAlign=top;aspect=fixed;imageAspect=0;image=https://globalcorporateventuring.com/content/uploads/2018/08/Snowflake_Computing_blue_icon.png;labelPosition=center;align=center;" parent="1" vertex="1"><mxGeometry x="1817" y="348" width="39" height="39.27" as="geometry"/></mxCell><mxCell id="Yjm4VTjS9bI23XTXU-3K-63" value="&lt;font size=&quot;1&quot; color=&quot;#ff8000&quot;&gt;&lt;b style=&quot;font-size: 12px&quot;&gt;9a&lt;/b&gt;&lt;/font&gt;" style="ellipse;whiteSpace=wrap;html=1;aspect=fixed;fillColor=#ffe6cc;fontSize=8;strokeColor=#d79b00;" parent="1" vertex="1"><mxGeometry x="1668" y="306" width="20" height="20" as="geometry"/></mxCell><mxCell id="Yjm4VTjS9bI23XTXU-3K-64" value="&lt;font size=&quot;1&quot; color=&quot;#ff8000&quot;&gt;&lt;b style=&quot;font-size: 12px&quot;&gt;9b&lt;/b&gt;&lt;/font&gt;" style="ellipse;whiteSpace=wrap;html=1;aspect=fixed;fillColor=#ffe6cc;fontSize=8;strokeColor=#d79b00;" parent="1" vertex="1"><mxGeometry x="1797" y="307.75" width="20" height="20" as="geometry"/></mxCell><mxCell id="Yjm4VTjS9bI23XTXU-3K-66" style="edgeStyle=orthogonalEdgeStyle;rounded=0;orthogonalLoop=1;jettySize=auto;html=1;entryX=0.5;entryY=0;entryDx=0;entryDy=0;startArrow=classic;startFill=1;endArrow=classic;endFill=1;exitX=0.5;exitY=1;exitDx=0;exitDy=0;" parent="1" source="Yjm4VTjS9bI23XTXU-3K-2" target="-d5AeIZ2xOsEHuWnEWz_-3" edge="1"><mxGeometry relative="1" as="geometry"><mxPoint x="1249.9950000000003" y="546.5" as="targetPoint"/><Array as="points"><mxPoint x="721" y="480"/><mxPoint x="1173" y="480"/></Array></mxGeometry></mxCell><mxCell id="Yjm4VTjS9bI23XTXU-3K-68" value="&lt;font size=&quot;1&quot;&gt;&lt;b style=&quot;font-size: 12px&quot;&gt;#&lt;/b&gt;&lt;/font&gt;" style="ellipse;whiteSpace=wrap;html=1;aspect=fixed;fillColor=#d5e8d4;fontSize=8;strokeColor=#82b366;" parent="1" vertex="1"><mxGeometry x="1948" y="20" width="20" height="20" as="geometry"/></mxCell><mxCell id="Yjm4VTjS9bI23XTXU-3K-69" value="&lt;font color=&quot;#ff8000&quot;&gt;&lt;span style=&quot;font-size: 12px&quot;&gt;&lt;b&gt;#&lt;/b&gt;&lt;/span&gt;&lt;/font&gt;" style="ellipse;whiteSpace=wrap;html=1;aspect=fixed;fillColor=#ffe6cc;fontSize=8;strokeColor=#d79b00;" parent="1" vertex="1"><mxGeometry x="1949" y="52.5" width="20" height="20" as="geometry"/></mxCell><mxCell id="Yjm4VTjS9bI23XTXU-3K-70" value="&lt;h1&gt;&lt;span style=&quot;font-size: 13px&quot;&gt;Workflow&lt;/span&gt;&lt;/h1&gt;" style="text;html=1;strokeColor=none;fillColor=none;spacing=5;spacingTop=-20;whiteSpace=wrap;overflow=hidden;rounded=0;" parent="1" vertex="1"><mxGeometry x="1868.5" y="38.5" width="68.5" height="40" as="geometry"/></mxCell><mxCell id="-d5AeIZ2xOsEHuWnEWz_-1" value="" style="shape=flexArrow;endArrow=none;html=1;fillColor=#dae8fc;strokeColor=#6c8ebf;startArrow=block;endFill=0;" parent="1" edge="1"><mxGeometry width="50" height="50" relative="1" as="geometry"><mxPoint x="1101" y="518" as="sourcePoint"/><mxPoint x="1101.5" y="450" as="targetPoint"/></mxGeometry></mxCell><mxCell id="-d5AeIZ2xOsEHuWnEWz_-2" value="" style="shape=flexArrow;endArrow=none;html=1;fillColor=#dae8fc;strokeColor=#6c8ebf;startArrow=block;endFill=0;" parent="1" edge="1"><mxGeometry width="50" height="50" relative="1" as="geometry"><mxPoint x="1735.33" y="518" as="sourcePoint"/><mxPoint x="1735.83" y="450" as="targetPoint"/></mxGeometry></mxCell><mxCell id="-d5AeIZ2xOsEHuWnEWz_-3" value="" style="shape=image;verticalLabelPosition=bottom;labelBackgroundColor=#ffffff;verticalAlign=top;aspect=fixed;imageAspect=0;image=data:image/svg+xml,PHN2ZyB4bWxucz0iaHR0cDovL3d3dy53My5vcmcvMjAwMC9zdmciIHhtbG5zOnhsaW5rPSJodHRwOi8vd3d3LnczLm9yZy8xOTk5L3hsaW5rIiB2ZXJzaW9uPSIxLjEiIGlkPSJMYXllcl8xIiB4PSIwcHgiIHk9IjBweCIgd2lkdGg9IjUwcHgiIGhlaWdodD0iNTBweCIgdmlld0JveD0iMCAwIDUwIDUwIiBlbmFibGUtYmFja2dyb3VuZD0ibmV3IDAgMCA1MCA1MCIgeG1sOnNwYWNlPSJwcmVzZXJ2ZSI+JiN4YTs8cmVjdCB4PSIxIiB5PSIyNiIgZmlsbC1ydWxlPSJldmVub2RkIiBjbGlwLXJ1bGU9ImV2ZW5vZGQiIGZpbGw9IiNBMEExQTIiIHdpZHRoPSIxMCIgaGVpZ2h0PSIxMCIvPiYjeGE7PHJlY3QgeD0iMSIgeT0iMTMiIGZpbGwtcnVsZT0iZXZlbm9kZCIgY2xpcC1ydWxlPSJldmVub2RkIiBmaWxsPSIjQTBBMUEyIiB3aWR0aD0iMTAiIGhlaWdodD0iMTAiLz4mI3hhOzxyZWN0IHg9IjEiIHk9IjM5IiBmaWxsLXJ1bGU9ImV2ZW5vZGQiIGNsaXAtcnVsZT0iZXZlbm9kZCIgZmlsbD0iI0EwQTFBMiIgd2lkdGg9IjEwIiBoZWlnaHQ9IjEwIi8+JiN4YTs8cmVjdCB4PSIxNCIgeT0iMzkiIGZpbGwtcnVsZT0iZXZlbm9kZCIgY2xpcC1ydWxlPSJldmVub2RkIiBmaWxsPSIjQTBBMUEyIiB3aWR0aD0iMTAiIGhlaWdodD0iMTAiLz4mI3hhOzxyZWN0IHg9IjI3IiB5PSIzOSIgZmlsbC1ydWxlPSJldmVub2RkIiBjbGlwLXJ1bGU9ImV2ZW5vZGQiIGZpbGw9IiNBMEExQTIiIHdpZHRoPSIxMCIgaGVpZ2h0PSIxMCIvPiYjeGE7PGc+JiN4YTsJPGc+JiN4YTsJCTxnPiYjeGE7CQkJPHBhdGggZmlsbC1ydWxlPSJldmVub2RkIiBjbGlwLXJ1bGU9ImV2ZW5vZGQiIGZpbGw9IiMwMDcyQzYiIGQ9Ik0zMS41LDFDMjEuNzA1LDEsMTQsOC43MDUsMTQsMTguNVYzNmMwLDAsMTIuOTk0LDAsMTcuNSwwICAgICBDNDEuMjk1LDM2LDQ5LDI4LjI5NSw0OSwxOC41QzQ5LDguNzA1LDQxLjI5NSwxLDMxLjUsMXoiLz4mI3hhOwkJPC9nPiYjeGE7CTwvZz4mI3hhOzwvZz4mI3hhOzxwYXRoIGZpbGwtcnVsZT0iZXZlbm9kZCIgY2xpcC1ydWxlPSJldmVub2RkIiBmaWxsPSIjRkZGRkZGIiBkPSJNMjEsMTZsMywwdjExaC0zVjE2eiIvPiYjeGE7PHBhdGggZmlsbC1ydWxlPSJldmVub2RkIiBjbGlwLXJ1bGU9ImV2ZW5vZGQiIGZpbGw9IiNGRkZGRkYiIGQ9Ik0yOCwxOWgzdjhoLTNWMTl6Ii8+JiN4YTs8cGF0aCBmaWxsLXJ1bGU9ImV2ZW5vZGQiIGNsaXAtcnVsZT0iZXZlbm9kZCIgZmlsbD0iI0ZGRkZGRiIgZD0iTTM1LDEyaDN2MTVoLTNWMTJ6Ii8+JiN4YTs8L3N2Zz4=;" parent="1" vertex="1"><mxGeometry x="1153" y="565" width="39" height="39" as="geometry"/></mxCell><mxCell id="-d5AeIZ2xOsEHuWnEWz_-5" value="Log Analytics Workspace" style="text;html=1;strokeColor=none;fillColor=none;align=center;verticalAlign=middle;whiteSpace=wrap;rounded=0;" parent="1" vertex="1"><mxGeometry x="1134" y="610" width="77" height="20" as="geometry"/></mxCell><mxCell id="-d5AeIZ2xOsEHuWnEWz_-8" value="Query logs" style="text;html=1;strokeColor=none;fillColor=none;align=center;verticalAlign=middle;whiteSpace=wrap;rounded=0;" parent="1" vertex="1"><mxGeometry x="1176" y="523" width="80" height="20" as="geometry"/></mxCell><mxCell id="-d5AeIZ2xOsEHuWnEWz_-9" value="&lt;font color=&quot;#ff8000&quot;&gt;&lt;span style=&quot;font-size: 12px&quot;&gt;&lt;b&gt;3&lt;/b&gt;&lt;/span&gt;&lt;/font&gt;" style="ellipse;whiteSpace=wrap;html=1;aspect=fixed;fillColor=#ffe6cc;fontSize=8;strokeColor=#d79b00;" parent="1" vertex="1"><mxGeometry x="730" y="421" width="20" height="20" as="geometry"/></mxCell><mxCell id="-d5AeIZ2xOsEHuWnEWz_-11" value="&lt;font color=&quot;#ff8000&quot;&gt;&lt;span style=&quot;font-size: 12px&quot;&gt;&lt;b&gt;4&lt;/b&gt;&lt;/span&gt;&lt;/font&gt;" style="ellipse;whiteSpace=wrap;html=1;aspect=fixed;fillColor=#ffe6cc;fontSize=8;strokeColor=#d79b00;" parent="1" vertex="1"><mxGeometry x="730" y="292" width="20" height="20" as="geometry"/></mxCell><mxCell id="m_cYoB6bSRNzUVAmJhqv-4" style="edgeStyle=orthogonalEdgeStyle;rounded=0;orthogonalLoop=1;jettySize=auto;html=1;" parent="1" source="Qm6lzyffdhsKWBaM1Gzu-1" target="m_cYoB6bSRNzUVAmJhqv-1" edge="1"><mxGeometry relative="1" as="geometry"/></mxCell><mxCell id="Qm6lzyffdhsKWBaM1Gzu-1" value="Move Activity" style="rounded=1;whiteSpace=wrap;html=1;" parent="1" vertex="1"><mxGeometry x="1279" y="225.5" width="110" height="30" as="geometry"/></mxCell><mxCell id="Qm6lzyffdhsKWBaM1Gzu-2" style="edgeStyle=orthogonalEdgeStyle;rounded=0;orthogonalLoop=1;jettySize=auto;html=1;" parent="1" source="5e1EL2xwupu4-Lr9WEpU-28" target="Qm6lzyffdhsKWBaM1Gzu-1" edge="1"><mxGeometry relative="1" as="geometry"/></mxCell><mxCell id="Qm6lzyffdhsKWBaM1Gzu-3" value="&lt;font size=&quot;1&quot; color=&quot;#ff8000&quot;&gt;&lt;b style=&quot;font-size: 12px&quot;&gt;8&lt;/b&gt;&lt;/font&gt;" style="ellipse;whiteSpace=wrap;html=1;aspect=fixed;fillColor=#ffe6cc;fontSize=8;strokeColor=#d79b00;" parent="1" vertex="1"><mxGeometry x="1470" y="291" width="20" height="20" as="geometry"/></mxCell><mxCell id="m_cYoB6bSRNzUVAmJhqv-1" value="" style="shape=image;verticalLabelPosition=bottom;labelBackgroundColor=#ffffff;verticalAlign=top;aspect=fixed;imageAspect=0;image=data:image/svg+xml,PHN2ZyB4bWxucz0iaHR0cDovL3d3dy53My5vcmcvMjAwMC9zdmciIHhtbG5zOnhsaW5rPSJodHRwOi8vd3d3LnczLm9yZy8xOTk5L3hsaW5rIiB2ZXJzaW9uPSIxLjEiIGlkPSJMYXllcl8xIiB4PSIwcHgiIHk9IjBweCIgd2lkdGg9IjUwcHgiIGhlaWdodD0iNTBweCIgdmlld0JveD0iMCAwIDUwIDUwIiBlbmFibGUtYmFja2dyb3VuZD0ibmV3IDAgMCA1MCA1MCIgeG1sOnNwYWNlPSJwcmVzZXJ2ZSI+JiN4YTs8Zz4mI3hhOwk8cGF0aCBmaWxsPSIjM0UzRTNFIiBkPSJNNi4xLDYuOHYzNi4zYzAsMy44LDguNCw2LjgsMTguOSw2LjhWNi44SDYuMXoiLz4mI3hhOwk8cGF0aCBmaWxsPSIjQTBBMUEyIiBkPSJNMjQuNyw1MEgyNWMxMC40LDAsMTguOS0zLjEsMTguOS02LjhWNi44SDI0LjdWNTB6Ii8+JiN4YTsJPHBhdGggZmlsbD0iI0ZGRkZGRiIgZD0iTTQzLjksNi44YzAsMy44LTguNCw2LjgtMTguOSw2LjhTNi4xLDEwLjYsNi4xLDYuOEM2LjEsMy4xLDE0LjYsMCwyNSwwUzQzLjksMy4xLDQzLjksNi44Ii8+JiN4YTsJPHBhdGggZmlsbD0iIzdGQkEwMCIgZD0iTTQwLDYuNGMwLDIuNS02LjcsNC41LTE1LDQuNXMtMTUtMi0xNS00LjVjMC0yLjUsNi43LTQuNSwxNS00LjVTNDAsMy45LDQwLDYuNCIvPiYjeGE7CTxwYXRoIGZpbGw9IiNCOEQ0MzIiIGQ9Ik0zNi45LDkuMmMyLTAuOCwzLjEtMS43LDMuMS0yLjhjMC0yLjUtNi43LTQuNS0xNS00LjVjLTguMywwLTE1LDItMTUsNC41YzAsMSwxLjIsMiwzLjEsMi44ICAgYzIuNy0xLjEsNy0xLjgsMTEuOS0xLjhDMjkuOCw3LjQsMzQuMSw4LjEsMzYuOSw5LjIiLz4mI3hhOzwvZz4mI3hhOzxnPiYjeGE7CTxwYXRoIGZpbGw9IiMzOTk5QzYiIGQ9Ik0yNC43LDUwVjMyYy0yLjgsMC01LjItMS41LTYuNi0zLjdjLTEuNCwyLjItMy43LDMuNy02LjUsMy43Yy0yLjIsMC00LjEtMC45LTUuNS0yLjR2MTMuNiAgIEM2LjEsNDYuOSwxNC40LDQ5LjksMjQuNyw1MHoiLz4mI3hhOwk8cGF0aCBmaWxsPSIjMzk5OUM2IiBkPSJNMjUsNTBMMjUsNTBMMjUsNTBDMjUsNTAsMjUsNTAsMjUsNTB6Ii8+JiN4YTsJPHBhdGggZmlsbD0iIzU5QjREOSIgZD0iTTI0LjcsNTBIMjVDMjQuOSw1MCwyNC44LDUwLDI0LjcsNTBMMjQuNyw1MHoiLz4mI3hhOwk8cGF0aCBmaWxsPSIjNTlCNEQ5IiBkPSJNMzguMSwzMmMtMi44LDAtNS4zLTEuNS02LjctMy43Yy0xLjMsMi4yLTMuNywzLjYtNi41LDMuN3YxOGgwYzEwLjQsMCwxOC45LTMuMSwxOC45LTYuOFYyOS41ICAgQzQyLjQsMzEsNDAuNCwzMiwzOC4xLDMyeiIvPiYjeGE7CTxwYXRoIGZpbGw9IiM1OUI0RDkiIGQ9Ik0yNC44LDMyQzI0LjgsMzIsMjQuOCwzMiwyNC44LDMybC0wLjEsMThjMC4xLDAsMC4xLDAsMC4yLDBoMFYzMkMyNC45LDMyLDI0LjksMzIsMjQuOCwzMnoiLz4mI3hhOzwvZz4mI3hhOzwvc3ZnPg==;" parent="1" vertex="1"><mxGeometry x="1309" y="343.37" width="50" height="50" as="geometry"/></mxCell><mxCell id="m_cYoB6bSRNzUVAmJhqv-3" value="Data Lake Raw (Error Folder)" style="text;html=1;strokeColor=none;fillColor=none;align=center;verticalAlign=middle;whiteSpace=wrap;rounded=0;" parent="1" vertex="1"><mxGeometry x="1290.25" y="402.5" width="87.5" height="20" as="geometry"/></mxCell><mxCell id="reUgYVe65YWgNyv8JKeq-6" value="" style="group" parent="1" vertex="1" connectable="0"><mxGeometry x="68" y="237.25" width="110" height="119" as="geometry"/></mxCell><mxCell id="reUgYVe65YWgNyv8JKeq-5" value="" style="rounded=0;whiteSpace=wrap;html=1;" parent="reUgYVe65YWgNyv8JKeq-6" vertex="1"><mxGeometry width="110" height="119" as="geometry"/></mxCell><mxCell id="reUgYVe65YWgNyv8JKeq-2" value="" style="aspect=fixed;html=1;points=[];align=center;image;fontSize=12;image=img/lib/azure2/databases/SQL_Server.svg;" parent="reUgYVe65YWgNyv8JKeq-6" vertex="1"><mxGeometry x="32" y="5" width="53" height="53" as="geometry"/></mxCell><mxCell id="reUgYVe65YWgNyv8JKeq-1" value="" style="shape=image;verticalLabelPosition=bottom;labelBackgroundColor=#ffffff;verticalAlign=top;aspect=fixed;imageAspect=0;image=https://4bridgeintegrations.com/wp-content/uploads/2017/04/logo-infor-slx.png;align=center;" parent="reUgYVe65YWgNyv8JKeq-6" vertex="1"><mxGeometry x="26.78" y="74.46000000000004" width="63.45" height="23.57" as="geometry"/></mxCell><mxCell id="reUgYVe65YWgNyv8JKeq-4" value="Client Connect" style="text;html=1;strokeColor=none;fillColor=none;align=center;verticalAlign=middle;whiteSpace=wrap;rounded=0;" parent="reUgYVe65YWgNyv8JKeq-6" vertex="1"><mxGeometry x="13.5" y="99" width="90" height="20" as="geometry"/></mxCell><mxCell id="reUgYVe65YWgNyv8JKeq-10" value="Full load (SELECT *)" style="text;html=1;strokeColor=none;fillColor=none;align=center;verticalAlign=middle;whiteSpace=wrap;rounded=0;" parent="1" vertex="1"><mxGeometry x="230" y="273" width="120" height="20" as="geometry"/></mxCell><mxCell id="wvQxSqVMz_zr0uZN6HZ3-1" value="&lt;font size=&quot;1&quot; color=&quot;#ff8000&quot;&gt;&lt;b style=&quot;font-size: 12px&quot;&gt;7&lt;/b&gt;&lt;/font&gt;" style="ellipse;whiteSpace=wrap;html=1;aspect=fixed;fillColor=#ffe6cc;fontSize=8;strokeColor=#d79b00;" parent="1" vertex="1"><mxGeometry x="1130" y="217.25" width="20" height="20" as="geometry"/></mxCell><mxCell id="wvQxSqVMz_zr0uZN6HZ3-2" value="If TDQ failed" style="text;html=1;strokeColor=none;fillColor=none;align=center;verticalAlign=middle;whiteSpace=wrap;rounded=0;" parent="1" vertex="1"><mxGeometry x="1160" y="217" width="90" height="20" as="geometry"/></mxCell><mxCell id="Y9yrZmMg8NA4QLdfQgY2-15" value="" style="shape=flexArrow;endArrow=classic;html=1;fontSize=8;fillColor=#dae8fc;strokeColor=#6c8ebf;exitX=0.75;exitY=1;exitDx=0;exitDy=0;" parent="1" edge="1"><mxGeometry width="50" height="50" relative="1" as="geometry"><mxPoint x="230.5" y="2" as="sourcePoint"/><mxPoint x="231" y="60" as="targetPoint"/></mxGeometry></mxCell><mxCell id="Y9yrZmMg8NA4QLdfQgY2-18" style="edgeStyle=orthogonalEdgeStyle;rounded=0;orthogonalLoop=1;jettySize=auto;html=1;entryX=0.5;entryY=0;entryDx=0;entryDy=0;" parent="1" source="Y9yrZmMg8NA4QLdfQgY2-16" target="eHKS3EOxerdEjLhXiZhe-3" edge="1"><mxGeometry relative="1" as="geometry"/></mxCell><mxCell id="Y9yrZmMg8NA4QLdfQgY2-16" value="" style="shape=image;verticalLabelPosition=bottom;labelBackgroundColor=#ffffff;verticalAlign=top;aspect=fixed;imageAspect=0;image=data:image/svg+xml,PHN2ZyB4bWxucz0iaHR0cDovL3d3dy53My5vcmcvMjAwMC9zdmciIHhtbG5zOnhsaW5rPSJodHRwOi8vd3d3LnczLm9yZy8xOTk5L3hsaW5rIiB2ZXJzaW9uPSIxLjEiIGlkPSJMYXllcl8xIiB4PSIwcHgiIHk9IjBweCIgdmlld0JveD0iMCAwIDY0IDY0IiBlbmFibGUtYmFja2dyb3VuZD0ibmV3IDAgMCA2NCA2NCIgeG1sOnNwYWNlPSJwcmVzZXJ2ZSI+JiN4YTs8Zz4mI3hhOwk8cGF0aCBmaWxsPSIjMzk5OUM2IiBkPSJNNjMuNiwzMi40YzAuNi0wLjYsMC41LTEuNywwLTIuM0w2MC41LDI3TDQ2LjcsMTMuNmMtMC42LTAuNi0xLjUtMC42LTIuMiwwbDAsMGMtMC42LDAuNi0wLjgsMS43LDAsMi4zICAgTDU5LDMwLjFjMC42LDAuNiwwLjYsMS43LDAsMi4zTDQ0LjIsNDcuMWMtMC42LDAuNi0wLjYsMS43LDAsMi4zbDAsMGMwLjYsMC42LDEuNywwLjUsMi4yLDBsMTMuNy0xMy42YzAsMCwwLDAsMC4xLTAuMUw2My42LDMyLjR6ICAgIi8+JiN4YTsJPHBhdGggZmlsbD0iIzM5OTlDNiIgZD0iTTAuNCwzMi40Yy0wLjYtMC42LTAuNS0xLjcsMC0yLjNMMy41LDI3bDEzLjgtMTMuNGMwLjYtMC42LDEuNS0wLjYsMi4yLDBsMCwwYzAuNiwwLjYsMC44LDEuNywwLDIuMyAgIEw1LjMsMzAuMWMtMC42LDAuNi0wLjYsMS43LDAsMi4zbDE0LjUsMTQuN2MwLjYsMC42LDAuNiwxLjcsMCwyLjNsMCwwYy0wLjYsMC42LTEuNywwLjUtMi4yLDBMMy42LDM2YzAsMCwwLDAtMC4xLTAuMUwwLjQsMzIuNHoiLz4mI3hhOwk8cG9seWdvbiBmaWxsPSIjRkNEMTE2IiBwb2ludHM9IjQ3LjYsMi41IDI4LjEsMi41IDE3LjYsMzIuMSAzMC40LDMyLjIgMjAuNCw2MS41IDQ4LDIyLjQgMzQuNiwyMi40ICAiLz4mI3hhOwk8cG9seWdvbiBvcGFjaXR5PSIwLjMiIGZpbGw9IiNGRjhDMDAiIGVuYWJsZS1iYWNrZ3JvdW5kPSJuZXcgICAgIiBwb2ludHM9IjM0LjYsMjIuNCA0Ny42LDIuNSAzNy40LDIuNSAyNi42LDI3LjEgMzkuNCwyNy4yICAgIDIwLjQsNjEuNSA0OCwyMi40ICAiLz4mI3hhOzwvZz4mI3hhOzwvc3ZnPg==;" parent="1" vertex="1"><mxGeometry x="208.75" y="64.5" width="42.5" height="42.5" as="geometry"/></mxCell><mxCell id="Y9yrZmMg8NA4QLdfQgY2-17" value="&lt;font style=&quot;font-size: 12px&quot;&gt;Parameter Parsing&lt;/font&gt;" style="text;html=1;strokeColor=none;fillColor=none;align=center;verticalAlign=middle;whiteSpace=wrap;rounded=0;fontSize=8;" parent="1" vertex="1"><mxGeometry x="181" y="106.5" width="100" height="20" as="geometry"/></mxCell><mxCell id="Y9yrZmMg8NA4QLdfQgY2-19" value="&lt;font color=&quot;#ff8000&quot;&gt;&lt;span style=&quot;font-size: 12px&quot;&gt;&lt;b&gt;1a&lt;/b&gt;&lt;/span&gt;&lt;/font&gt;" style="ellipse;whiteSpace=wrap;html=1;aspect=fixed;fillColor=#ffe6cc;fontSize=8;strokeColor=#d79b00;" parent="1" vertex="1"><mxGeometry x="430" y="120" width="20" height="20" as="geometry"/></mxCell></root></mxGraphModel></diagram></mxfile>